<?xml version="1.0"?>
<svg xmlns="http://www.w3.org/2000/svg" xmlns:xlink="http://www.w3.org/1999/xlink" version="1.1" id="Capa_1" x="0px" y="0px" viewBox="0 0 383.946 383.946" style="enable-background:new 0 0 383.946 383.946;" xml:space="preserve" width="512px" height="512px" class=""><g><polygon style="fill:#14FEAC" points="368.003,15.946 224.003,367.946 176.003,207.946 " data-original="#FF7043" class="" data-old_color="#FF7043"/><polygon style="fill:#4DE198" points="368.003,15.946 176.003,207.946 16.003,159.946 " data-original="#4DD0E1" class="" data-old_color="#4DD0E1"/><g>
	<path style="fill:#012949" d="M383.635,12.634c-0.272-1.272-0.736-2.504-1.32-3.696c-0.152-0.304-0.304-0.6-0.472-0.904   c-0.688-1.208-1.488-2.368-2.52-3.4c-1.032-1.032-2.2-1.832-3.408-2.52c-0.288-0.168-0.576-0.312-0.88-0.464   c-1.224-0.6-2.48-1.088-3.792-1.36c-0.04-0.008-0.064-0.016-0.096-0.024c-1.368-0.272-2.76-0.312-4.152-0.224   c-0.304,0.016-0.608,0.048-0.912,0.088c-1.408,0.168-2.808,0.464-4.144,1.008l-351.992,144c-6.28,2.568-10.256,8.816-9.928,15.584   c0.328,6.776,4.888,12.608,11.392,14.552l151.744,45.528l45.52,151.744c1.952,6.496,7.784,11.056,14.552,11.384   c0.264,0.008,0.52,0.016,0.784,0.016c6.464,0,12.336-3.904,14.808-9.944l144-352c0-0.008,0-0.008,0-0.016   c0.536-1.312,0.824-2.68,0.992-4.064c0.04-0.344,0.08-0.68,0.096-1.024c0.08-1.36,0.048-2.728-0.216-4.072   C383.675,12.762,383.651,12.698,383.635,12.634z M300.459,60.858L171.451,189.874L63.947,157.618L300.459,60.858z M226.323,320.01   l-32.248-107.512l129-129L226.323,320.01z" data-original="#012E52" class="active-path" data-old_color="#012E52"/>
	<path style="fill:#012949" d="M139.315,244.634c-6.248-6.248-16.376-6.248-22.624,0l-40,40c-6.248,6.248-6.248,16.376,0,22.624   c3.128,3.128,7.216,4.688,11.312,4.688s8.184-1.56,11.312-4.688l40-40C145.563,261.01,145.563,250.882,139.315,244.634z" data-original="#012E52" class="active-path" data-old_color="#012E52"/>
	<path style="fill:#012949" d="M27.315,291.258l24-24c6.248-6.248,6.248-16.376,0-22.624s-16.376-6.248-22.624,0l-24,24   c-6.248,6.248-6.248,16.376,0,22.624c3.128,3.128,7.216,4.688,11.312,4.688S24.187,294.386,27.315,291.258z" data-original="#012E52" class="active-path" data-old_color="#012E52"/>
	<path style="fill:#012949" d="M116.691,332.634l-24,24c-6.248,6.248-6.248,16.376,0,22.624c3.128,3.128,7.216,4.688,11.312,4.688   s8.184-1.56,11.312-4.688l24-24c6.248-6.248,6.248-16.376,0-22.624C133.067,326.386,122.939,326.386,116.691,332.634z" data-original="#012E52" class="active-path" data-old_color="#012E52"/>
</g></g> </svg>
