<?xml version="1.0" encoding="iso-8859-1"?>
<!-- Generator: Adobe Illustrator 19.0.0, SVG Export Plug-In . SVG Version: 6.00 Build 0)  -->
<svg version="1.1" id="Capa_1" xmlns="http://www.w3.org/2000/svg" xmlns:xlink="http://www.w3.org/1999/xlink" x="0px" y="0px"
	 viewBox="0 0 453.486 453.486" style="enable-background:new 0 0 453.486 453.486;" xml:space="preserve">
<g>
	<g>
		<path style="fill:#00CEB4;" d="M401.763,41.796v329.143c0.259,2.874-1.86,5.414-4.734,5.673c-1.535,0.138-3.053-0.408-4.148-1.493
			L358.4,342.727c-2.185-1.57-5.129-1.57-7.314,0l-12.016,10.971V102.922c0-17.312-14.035-31.347-31.347-31.347H114.416v-29.78
			c0-17.312,14.035-31.347,31.347-31.347h224.653C387.729,10.449,401.763,24.483,401.763,41.796z"/>
		<path style="fill:#D4E1F4;" d="M339.069,353.698v78.89c0.259,2.874-1.86,5.414-4.734,5.673c-1.535,0.138-3.053-0.408-4.148-1.493
			l-34.482-32.392c-2.185-1.57-5.129-1.57-7.314,0l-41.273,37.094c-2.032,1.991-5.283,1.991-7.314,0l-40.751-37.094
			c-2.185-1.57-5.129-1.57-7.314,0l-40.751,37.094c-2.032,1.991-5.283,1.991-7.314,0L102.4,404.375c-2.185-1.57-5.129-1.57-7.314,0
			l-34.482,32.392c-2.049,2.031-5.357,2.017-7.388-0.032c-1.085-1.095-1.632-2.613-1.493-4.148V102.922
			c0-17.312,14.035-31.347,31.347-31.347h224.653c17.312,0,31.347,14.035,31.347,31.347V353.698z"/>
	</g>
	<g>
		<path style="fill:#083863;" d="M243.461,453.486c-3.861-0.144-7.554-1.621-10.449-4.18l-37.616-33.959l-37.616,33.959
			c-5.95,5.322-14.948,5.322-20.898,0l-38.139-33.959l-31.347,28.735c-4.405,4.37-11.029,5.612-16.718,3.135
			c-5.709-2.637-9.375-8.34-9.404-14.629V102.922c0-23.083,18.713-41.796,41.796-41.796h224.653
			c23.083,0,41.796,18.713,41.796,41.796v329.665c-0.029,6.288-3.695,11.992-9.404,14.629c-5.689,2.477-12.313,1.235-16.718-3.135
			l-31.347-28.735l-38.139,33.959C251.015,451.865,247.323,453.342,243.461,453.486z M195.396,392.882
			c3.912-0.117,7.697,1.397,10.449,4.18l37.616,33.437l38.139-33.959c5.99-5.429,15.187-5.199,20.898,0.522l26.122,24.033V102.922
			c0-11.542-9.356-20.898-20.898-20.898H83.069c-11.542,0-20.898,9.356-20.898,20.898v318.171l26.122-24.033
			c5.711-5.721,14.908-5.951,20.898-0.522l38.139,33.959l37.616-33.959C187.892,394.13,191.591,392.836,195.396,392.882z"/>
		<path style="fill:#083863;" d="M197.486,177.633h-66.873c-5.771,0-10.449-4.678-10.449-10.449c0-5.771,4.678-10.449,10.449-10.449
			h66.873c5.771,0,10.449,4.678,10.449,10.449C207.935,172.954,203.257,177.633,197.486,177.633z"/>
		<path style="fill:#083863;" d="M260.18,245.551H130.612c-5.771,0-10.449-4.678-10.449-10.449c0-5.771,4.678-10.449,10.449-10.449
			H260.18c5.771,0,10.449,4.678,10.449,10.449C270.629,240.873,265.95,245.551,260.18,245.551z"/>
		<path style="fill:#083863;" d="M260.18,313.469H130.612c-5.771,0-10.449-4.678-10.449-10.449s4.678-10.449,10.449-10.449H260.18
			c5.771,0,10.449,4.678,10.449,10.449S265.95,313.469,260.18,313.469z"/>
		<path style="fill:#083863;" d="M396.539,386.612c-3.923,0.183-7.734-1.341-10.449-4.18l-31.347-28.735l-8.882,7.837
			l-13.584-15.673l12.016-10.971c5.99-5.429,15.187-5.199,20.898,0.522l26.122,24.033V41.796c0-11.542-9.356-20.898-20.898-20.898
			H145.763c-11.542,0-20.898,9.356-20.898,20.898v29.78h-20.898v-29.78C103.967,18.713,122.68,0,145.763,0h224.653
			c23.083,0,41.796,18.713,41.796,41.796v329.143c-0.029,6.288-3.695,11.992-9.404,14.629
			C400.836,386.427,398.683,386.785,396.539,386.612z"/>
	</g>
</g>
<g>
</g>
<g>
</g>
<g>
</g>
<g>
</g>
<g>
</g>
<g>
</g>
<g>
</g>
<g>
</g>
<g>
</g>
<g>
</g>
<g>
</g>
<g>
</g>
<g>
</g>
<g>
</g>
<g>
</g>
</svg>
