<?xml version="1.0"?>
<svg xmlns="http://www.w3.org/2000/svg" height="512px" viewBox="0 0 512 512" width="512px" class=""><g><path d="m32 0h-32v512h512v-32h-480zm0 0" fill="#b0bec5" data-original="#B0BEC5" class="active-path" data-old_color="#b0bec5" style="fill:#FFFFFF"/><path d="m416 32v70.113281l-51.777344 25.886719h-76.222656v77.648438l-43.902344 146.351562h-44.097656l-40-53.328125v-74.671875h-96v96h72l40 53.328125v74.671875h96v-77.648438l43.902344-146.351562h68.097656v-70.113281l51.777344-25.886719h76.222656v-96zm-288 256h-32v-32h32zm112 128h-32v-32h32zm112-224h-32v-32h32zm128-96h-32v-32h32zm0 0" fill="#8bc34a" data-original="#8BC34A" class="" style="fill:#FFFFFF" data-old_color="#8bc34a"/></g> </svg>
