<?xml version="1.0"?>
<svg xmlns="http://www.w3.org/2000/svg" xmlns:xlink="http://www.w3.org/1999/xlink" xmlns:svgjs="http://svgjs.com/svgjs" version="1.1" width="512" height="512" x="0" y="0" viewBox="0 0 512.001 512.001" style="enable-background:new 0 0 512 512" xml:space="preserve" class=""><g><g xmlns="http://www.w3.org/2000/svg"><path d="m384.085 242.321c-23.436-4.925-90.227-23.675-117.479-50.927-5.857-5.858-15.355-5.858-21.213 0-32.747 32.747-116.643 50.75-117.481 50.928-6.941 1.46-11.912 7.584-11.912 14.678v128.5c0 89.39 130.646 124.559 136.207 126.013 1.243.325 2.518.487 3.792.487s2.549-.163 3.793-.487c5.562-1.454 136.208-36.623 136.208-126.013v-128.5c0-7.095-4.971-13.22-11.915-14.679z" fill="#12c79d" data-original="#ff712f" style="" class=""/><path d="m384.085 242.321c-23.436-4.925-90.227-23.675-117.479-50.927-2.928-2.929-6.767-4.394-10.606-4.394v325c1.274 0 2.549-.163 3.793-.487 5.561-1.454 136.207-36.623 136.207-126.013v-128.5c0-7.095-4.971-13.22-11.915-14.679z" fill="#18b589" data-original="#ff3f5c" style="" class=""/><path d="m286 364.5c-8.284 0-15-6.716-15-15v-30c0-8.271-6.729-15-15-15s-15 6.729-15 15v30c0 8.284-6.716 15-15 15s-15-6.716-15-15v-30c0-24.813 20.187-45 45-45s45 20.188 45 45v30c0 8.285-6.715 15-15 15z" fill="#61729b" data-original="#61729b" style="" class=""/><path d="m256 274.5v30c8.271 0 15 6.729 15 15v30c0 8.284 6.716 15 15 15s15-6.716 15-15v-30c0-24.812-20.187-45-45-45z" fill="#47568c" data-original="#47568c" style="" class=""/><path d="m301 334.5h-90c-8.284 0-15 6.716-15 15v60c0 8.284 6.716 15 15 15h90c8.284 0 15-6.716 15-15v-60c0-8.284-6.715-15-15-15z" fill="#edf5ff" data-original="#edf5ff" style=""/><path d="m301 334.5h-45v90h45c8.284 0 15-6.716 15-15v-60c0-8.284-6.715-15-15-15z" fill="#d5e8fe" data-original="#d5e8fe" style=""/><path d="m326.673 49.935-39.539-5.745-17.682-35.828c-2.528-5.12-7.742-8.362-13.452-8.362s-10.924 3.242-13.451 8.361l-17.682 35.829-39.54 5.745c-5.65.821-10.344 4.779-12.108 10.209-1.765 5.43-.293 11.391 3.795 15.377l28.611 27.889-6.754 39.38c-.965 5.627 1.348 11.315 5.967 14.671 2.613 1.899 5.708 2.865 8.818 2.865 2.388 0 4.784-.569 6.979-1.723l35.365-18.593 35.365 18.593c2.21 1.162 4.627 1.735 7.024 1.723 8.273-.013 14.976-6.724 14.976-15 0-1.152-.13-2.274-.376-3.351l-6.614-38.564 28.611-27.889c4.088-3.985 5.56-9.946 3.796-15.377-1.765-5.431-6.459-9.388-12.109-10.21z" fill="#ffe470" data-original="#ffe470" style="" class=""/><path d="m511.266 110.144c-1.764-5.43-6.458-9.388-12.108-10.209l-39.539-5.745-17.683-35.829c-2.527-5.12-7.742-8.361-13.451-8.361-5.71 0-10.924 3.242-13.451 8.361l-17.683 35.829-39.54 5.745c-5.65.821-10.344 4.779-12.108 10.209-1.765 5.43-.293 11.391 3.795 15.377l28.611 27.889-6.754 39.38c-.965 5.627 1.348 11.315 5.967 14.671 2.613 1.899 5.708 2.865 8.818 2.865 2.388 0 4.784-.569 6.979-1.723l35.364-18.593 35.365 18.593c2.21 1.161 4.656 1.754 7.024 1.723 8.273-.013 14.976-6.724 14.976-15 0-1.152-.13-2.274-.376-3.351l-6.614-38.564 28.611-27.889c4.09-3.986 5.562-9.947 3.797-15.378z" fill="#ffcd00" data-original="#ffcd00" style="" class=""/><path d="m154.189 99.935-39.539-5.745-17.683-35.828c-2.527-5.12-7.742-8.362-13.451-8.362s-10.924 3.242-13.451 8.361l-17.682 35.829-39.539 5.745c-5.65.821-10.344 4.779-12.108 10.209-1.765 5.43-.293 11.391 3.795 15.377l28.611 27.889-6.754 39.38c-.965 5.627 1.348 11.315 5.967 14.671 2.613 1.899 5.708 2.865 8.818 2.865 2.388 0 4.784-.569 6.979-1.723l35.364-18.593 35.365 18.593c2.209 1.161 4.598 1.754 7.024 1.723 8.273-.013 14.976-6.724 14.976-15 0-1.152-.13-2.274-.376-3.351l-6.614-38.564 28.611-27.889c4.088-3.985 5.56-9.946 3.795-15.377-1.764-5.431-6.458-9.388-12.108-10.21z" fill="#ffe470" data-original="#ffe470" style="" class=""/><path d="m338.782 60.144c-1.764-5.43-6.458-9.388-12.108-10.209l-39.539-5.745-17.683-35.828c-2.528-5.12-7.742-8.362-13.452-8.362v140.01l35.365 18.593c2.21 1.162 4.627 1.735 7.024 1.723 8.273-.013 14.976-6.724 14.976-15 0-1.152-.13-2.274-.376-3.351l-6.614-38.564 28.611-27.889c4.089-3.986 5.56-9.947 3.796-15.378z" fill="#ffcd00" data-original="#ffcd00" style="" class=""/></g></g></svg>
