<svg height="512pt" viewBox="0 0 512 512" width="512pt" xmlns="http://www.w3.org/2000/svg"><path d="m512 76v360c0 41.398438-34.601562 76-76 76h-360c-41.398438 0-76-34.601562-76-76v-360c0-41.398438 34.601562-76 76-76h360c41.398438 0 76 34.601562 76 76zm0 0" fill="#0095ff"/><path d="m436 0h-180v512h180c41.398438 0 76-34.601562 76-76v-360c0-41.398438-34.601562-76-76-76zm0 0" fill="#006eff"/><path d="m379.300781 160.601562c13.5-2.101562 25.199219.898438 35.699219 3.296876 6.300781 1.5 10.800781 3 16.800781-.898438 3.300781-2.398438 5.699219-6 6.300781-10.199219l9.902344-66.300781c1.195313-7.5-3.601562-14.398438-10.804687-16.5-31.796875-9-62.695313-11.402344-92.398438-7.199219-66.902343 9.898438-88.800781 45.597657-88.800781 94.796875v53.402344h-30c-8.402344 0-15 6.597656-15 15v60c0 8.398438 6.597656 15 15 15h30v211h105v-211h45c6.898438 0 12.898438-4.800781 14.398438-11.398438l8.402343-33.601562 6.597657-26.398438c2.402343-9.300781-4.496094-18.601562-14.398438-18.601562h-60v-33c0-6.902344 1.5-14.402344 18.300781-17.398438zm0 0" fill="#edf5ff"/><path d="m406 301c6.898438 0 12.898438-4.800781 14.398438-11.398438l8.402343-33.601562 6.597657-26.398438c2.402343-9.300781-4.496094-18.601562-14.398438-18.601562h-60v-33c0-6.898438 1.5-14.398438 18.300781-17.398438 13.5-2.101562 25.199219.898438 35.699219 3.296876 6.300781 1.5 10.800781 3 16.800781-.898438 3.300781-2.398438 5.699219-6 6.300781-10.199219l9.902344-66.300781c1.195313-7.5-3.601562-14.398438-10.804687-16.5-31.796875-9-62.695313-11.402344-92.398438-7.199219-66.902343 9.898438-88.800781 45.597657-88.800781 94.796875v354.402344h105v-211zm0 0" fill="#d7e9ff"/></svg>