<?xml version="1.0"?>
<svg xmlns="http://www.w3.org/2000/svg" xmlns:xlink="http://www.w3.org/1999/xlink" xmlns:svgjs="http://svgjs.com/svgjs" version="1.1" width="512" height="512" x="0" y="0" viewBox="0 0 415.85001 415" style="enable-background:new 0 0 512 512" xml:space="preserve" class=""><g><path xmlns="http://www.w3.org/2000/svg" d="m408.851562 245.675781v121.359375c0 15.96875-12.945312 28.910156-28.910156 28.910156h-197.890625c15.96875.003907 28.917969-12.941406 28.917969-28.910156v-121.359375c0-15.960937 12.941406-28.902343 28.902344-28.902343h140.070312c15.964844-.003907 28.910156 12.9375 28.910156 28.902343zm0 0" fill="#66e4a3" data-original="#e48e66" style="" class=""/><path xmlns="http://www.w3.org/2000/svg" d="m373.398438 210.886719v5.886719h-133.527344c-15.960938 0-28.902344 12.941406-28.902344 28.902343v121.359375c0 15.96875-12.949219 28.914063-28.917969 28.910156h-3.039062c-15.972657.003907-28.917969-12.941406-28.921875-28.910156v-189.449218c.003906-15.96875 12.953125-28.910157 28.921875-28.902344h64.859375c8.113281 0 15.855468 3.410156 21.339844 9.390625l2.398437 2.621093 17.289063 18.929688c1.371093 1.496094 3.304687 2.347656 5.332031 2.351562h54.25c15.96875-.003906 28.917969 12.9375 28.917969 28.910157zm0 0" fill="#ffdc1d" data-original="#f8ec7d" style="" class=""/><path xmlns="http://www.w3.org/2000/svg" d="m267.609375 104.433594v56.261718l-2.398437-2.621093c-5.484376-5.980469-13.226563-9.390625-21.339844-9.390625h-64.859375c-15.96875-.007813-28.917969 12.933594-28.921875 28.902344v77.109374h-109.28125c15.964844 0 28.90625-12.945312 28.902344-28.910156v-121.351562c0-15.96875 12.949218-28.910156 28.917968-28.910156h140.070313c15.96875.003906 28.910156 12.945312 28.910156 28.910156zm0 0" fill="#66e4a3" data-original="#e48e66" style="" class=""/><path xmlns="http://www.w3.org/2000/svg" d="m232.160156 69.644531v5.878907h-133.53125c-15.96875 0-28.917968 12.941406-28.917968 28.910156v121.351562c.003906 15.964844-12.9375 28.910156-28.902344 28.910156h-3.039063c-15.96875.003907-28.917969-12.941406-28.917969-28.910156v-189.441406c0-15.96875 12.945313-28.917969 28.917969-28.917969h64.851563c8.117187-.003906 15.867187 3.410157 21.339844 9.410157l19.6875 21.539062c1.367187 1.5 3.304687 2.351562 5.332031 2.351562h54.257812c15.972657 0 28.921875 12.945313 28.921875 28.917969zm0 0" fill="#ffdc1d" data-original="#f8ec7d" style="" class=""/><g xmlns="http://www.w3.org/2000/svg" fill="#63316d"><path d="m380.371094 209.785156c-.613282-19.386718-16.496094-34.789062-35.890625-34.808594h-54.25c-.0625-.003906-.117188-.03125-.160157-.070312l-15.460937-16.921875v-53.550781c-.019531-19.648438-15.816406-35.640625-35.46875-35.90625-.625-19.382813-16.507813-34.777344-35.898437-34.800782h-54.261719c-.0625.003907-.121094-.023437-.164063-.070312l-19.683594-21.539062c-6.804687-7.441407-16.425781-11.6875-26.511718-11.691407h-64.851563c-19.828125.019531-35.898437 16.089844-35.917969 35.917969v189.441406c.023438 19.824219 16.09375 35.890625 35.917969 35.910156h105.320313v105.339844c.027344 19.824219 16.09375 35.890625 35.921875 35.910156h200.929687c19.820313-.023437 35.886719-16.085937 35.910156-35.910156v-121.359375c-.027343-19.652343-15.832031-35.636719-35.480468-35.890625zm-342.601563 37.910156c-12.097656-.011718-21.902343-9.8125-21.917969-21.910156v-189.441406c.011719-12.097656 9.816407-21.90625 21.917969-21.917969h64.851563c6.152344.003907 12.019531 2.589844 16.171875 7.132813l19.6875 21.539062c2.695312 2.945313 6.507812 4.625 10.5 4.628906h54.261719c11.664062.011719 21.28125 9.148438 21.890624 20.796876h-126.503906c-19.824218.019531-35.894531 16.085937-35.917968 35.910156v121.351562c-.011719 12.09375-9.808594 21.894532-21.902344 21.910156zm105.320313-70.109374v70.109374h-73.863282c4.855469-6.269531 7.488282-13.980468 7.484376-21.910156v-121.351562c.015624-12.097656 9.820312-21.898438 21.917968-21.910156h140.070313c12.09375.015624 21.898437 9.816406 21.910156 21.910156v41.410156c-5.160156-2.722656-10.90625-4.152344-16.738281-4.160156h-64.859375c-19.824219.019531-35.894531 16.078125-35.921875 35.902344zm60.878906 189.449218c-.015625 12.097656-9.820312 21.898438-21.917969 21.910156h-3.039062c-12.097657-.011718-21.90625-9.8125-21.921875-21.910156v-189.449218c.019531-12.097657 9.824218-21.894532 21.921875-21.902344h64.859375c6.148437.007812 12.015625 2.589844 16.175781 7.117187l19.683594 21.546875c2.699219 2.945313 6.507812 4.625 10.5 4.628906h54.25c11.667969.011719 21.285156 9.148438 21.890625 20.796876h-126.5c-19.820313.023437-35.878906 16.082031-35.902344 35.902343zm197.882812 0c-.015624 12.09375-9.816406 21.894532-21.910156 21.910156h-169.449218c4.855468-6.269531 7.484374-13.980468 7.476562-21.910156v-121.359375c.015625-12.089843 9.8125-21.886719 21.902344-21.902343h140.070312c12.089844.011718 21.890625 9.808593 21.910156 21.902343zm0 0" fill="#0e807a" data-original="#63316d" style="" class=""/><path d="m27.574219 322.285156c-8.746094-8.71875-13.632813-20.574218-13.574219-32.921875 0-1.851562-.742188-3.625-2.054688-4.929687-1.3125-1.304688-3.09375-2.035156-4.945312-2.023438-3.871094.019532-7 3.167969-7 7.039063-.0117188 16.039062 6.355469 31.421875 17.695312 42.761719 11.34375 11.339843 26.726563 17.707031 42.765626 17.695312h40.53125l-18.382813 18.921875c-2.695313 2.769531-2.628906 7.203125.140625 9.898437 2.773438 2.695313 7.207031 2.632813 9.898438-.140624l29.371093-30.230469c2.632813-2.707031 2.640625-7.015625.019531-9.734375l-29.367187-30.480469c-2.683594-2.785156-7.117187-2.867187-9.898437-.183594-2.785157 2.683594-2.867188 7.113281-.183594 9.898438l17.398437 18.050781h-39.601562c-12.316407.027344-24.132813-4.878906-32.8125-13.621094zm0 0" fill="#0e807a" data-original="#63316d" style="" class=""/></g></g></svg>
