<?xml version="1.0"?>
<svg xmlns="http://www.w3.org/2000/svg" xmlns:xlink="http://www.w3.org/1999/xlink" xmlns:svgjs="http://svgjs.com/svgjs" version="1.1" width="512" height="512" x="0" y="0" viewBox="0 0 512 512" style="enable-background:new 0 0 512 512" xml:space="preserve" class=""><g><path xmlns="http://www.w3.org/2000/svg" d="m512 15.296875v453.367187c0 8.445313-6.855469 15.296876-15.296875 15.296876h-453.367187c-4.222657 0-8.046876-1.710938-10.820313-4.476563-2.765625-2.773437-4.476563-6.597656-4.476563-10.820313v-453.367187c0-8.441406 6.851563-15.296875 15.296876-15.296875h453.367187c4.21875 0 8.046875 1.714844 10.808594 4.488281 2.773437 2.761719 4.488281 6.589844 4.488281 10.808594zm0 0" fill="#0ca573" data-original="#2682ff" style="" class=""/><path xmlns="http://www.w3.org/2000/svg" d="m512 15.296875v453.367187c0 8.445313-6.855469 15.296876-15.296875 15.296876h-453.367187c-4.222657 0-8.046876-1.710938-10.820313-4.476563l474.996094-474.996094c2.773437 2.761719 4.488281 6.589844 4.488281 10.808594zm0 0" fill="#7bddaf" data-original="#046eff" style="" class=""/><path xmlns="http://www.w3.org/2000/svg" d="m404.234375 125.417969v113.242187c0 9.761719-7.902344 17.667969-17.652344 17.667969-9.753906 0-17.667969-7.90625-17.667969-17.667969v-70.609375l-258.914062 258.917969c-6.894531 6.894531-18.074219 6.894531-24.96875 0s-6.894531-18.074219 0-24.96875l258.917969-258.914062h-70.621094c-9.75 0-17.65625-7.90625-17.65625-17.667969 0-9.75 7.90625-17.652344 17.65625-17.652344h113.253906c4.851563 0 9.269531 1.976563 12.472657 5.179687 3.191406 3.191407 5.179687 7.597657 5.179687 12.472657zm0 0" fill="#fdd83d" data-original="#ffde55" style="" class=""/><path xmlns="http://www.w3.org/2000/svg" d="m404.234375 125.417969v113.242187c0 9.761719-7.902344 17.667969-17.652344 17.667969-9.753906 0-17.667969-7.90625-17.667969-17.667969v-70.609375l-258.914062 258.917969c-6.894531 6.894531-18.074219 6.894531-24.96875 0l314.023438-314.023438c3.191406 3.191407 5.179687 7.597657 5.179687 12.472657zm0 0" fill="#ffcd00" data-original="#ffcd00" style="" class=""/><path xmlns="http://www.w3.org/2000/svg" d="m213.621094 322.703125v171.640625c0 9.742188-7.894532 17.65625-17.652344 17.65625h-178.3125c-4.867188 0-9.28125-1.980469-12.484375-5.171875-3.191406-3.203125-5.171875-7.617187-5.171875-12.484375v-178.3125c0-9.757812 7.914062-17.652344 17.65625-17.652344h171.640625c6.722656 0 12.800781 2.722656 17.207031 7.117188 4.394532 4.40625 7.117188 10.484375 7.117188 17.207031zm0 0" fill="#fdd83d" data-original="#ffde55" style="" class=""/><path xmlns="http://www.w3.org/2000/svg" d="m213.621094 322.703125v171.640625c0 9.742188-7.894532 17.65625-17.652344 17.65625h-178.3125c-4.867188 0-9.28125-1.980469-12.484375-5.171875l201.332031-201.332031c4.394532 4.40625 7.117188 10.484375 7.117188 17.207031zm0 0" fill="#ffcd00" data-original="#ffcd00" style="" class=""/><path xmlns="http://www.w3.org/2000/svg" d="m213.621094 322.703125v.632813l-103.621094 103.632812c-6.886719 6.894531-18.074219 6.894531-24.96875 0s-6.894531-18.082031 0-24.96875l103.632812-103.621094h.632813c6.722656 0 12.800781 2.722656 17.207031 7.117188 4.394532 4.40625 7.117188 10.484375 7.117188 17.207031zm0 0" fill="#0ca573" data-original="#2682ff" style="" class=""/><path xmlns="http://www.w3.org/2000/svg" d="m213.621094 322.703125v.632813l-103.621094 103.632812c-6.886719 6.894531-18.074219 6.894531-24.96875 0l121.472656-121.472656c4.394532 4.40625 7.117188 10.484375 7.117188 17.207031zm0 0" fill="#7bddaf" data-original="#046eff" style="" class=""/></g></svg>
