<svg width="77" height="65" viewBox="0 0 77 65" fill="none" xmlns="http://www.w3.org/2000/svg">
<path d="M3.67293 3.89454V7.22787H42.5436V42.7678H7.00627V3.89454H3.67293V7.22787V3.89454H0.3396V46.1012C0.3396 46.9785 0.695592 47.8372 1.31559 48.4572C1.93693 49.0785 2.7956 49.4345 3.67293 49.4345H45.8769C46.7556 49.4345 47.6142 49.0785 48.2342 48.4572C48.8556 47.8372 49.2103 46.9785 49.2103 46.1012V3.89454C49.2103 3.0172 48.8556 2.15855 48.2342 1.53855C47.6142 0.917215 46.7556 0.561205 45.8769 0.561205H3.67293C2.7956 0.561205 1.93693 0.917215 1.31559 1.53855C0.695592 2.15855 0.3396 3.0172 0.3396 3.89454H3.67293Z" fill="black"/>
<path d="M76.9662 64.5798H33.4288V49.4345H34.7622V63.2465H75.6329V22.3745H49.2102V21.0412H76.9662V64.5798ZM34.7622 42.7678H33.4288V21.7079V21.0412H42.5435V22.3745H34.7622V42.7678Z" fill="#ADADAD"/>
<path d="M34.7622 49.4345H33.4288V42.7678H34.7622V49.4345ZM49.2102 22.3745H42.5435V21.0412H49.2102V22.3745Z" fill="black"/>
</svg>
