<svg width="78" height="65" viewBox="0 0 78 65" fill="none" xmlns="http://www.w3.org/2000/svg">
<path d="M46.1324 24.7712H42.799C42.7977 29.7219 40.803 34.1712 37.5604 37.4179C34.3137 40.6592 29.8644 42.6539 24.9151 42.6566C19.9657 42.6539 15.5164 40.6592 12.2684 37.4179C9.02704 34.1712 7.03104 29.7206 7.0297 24.7712C7.03104 19.8232 9.02704 15.3726 12.2684 12.1259C15.5164 8.88458 19.9657 6.88991 24.9151 6.88724C29.8644 6.88991 34.3137 8.88458 37.5604 12.1259C40.803 15.3726 42.7977 19.8232 42.799 24.7712H46.1324H49.4657C49.463 11.2112 38.4751 0.223243 24.9151 0.220576C11.3551 0.223243 0.365704 11.2112 0.363037 24.7712C0.365704 38.3339 11.3551 49.3206 24.9151 49.3232C38.4751 49.3206 49.463 38.3326 49.4657 24.7712H46.1324Z" fill="black"/>
<path d="M55.3363 64.4686C44.9683 64.4686 36.2829 57.2579 34.0243 47.5766C34.4443 47.4086 34.8603 47.2286 35.2683 47.0379C36.127 50.9259 38.087 54.3979 40.8043 57.1166C44.5256 60.8366 49.6603 63.1352 55.3363 63.1352C61.0136 63.1352 66.147 60.8366 69.8683 57.1166C73.5883 53.3953 75.887 48.2619 75.887 42.5846C75.887 36.9073 73.5883 31.7739 69.8683 28.0526C66.147 24.3326 61.0136 22.0339 55.3363 22.0339C53.271 22.0339 51.2763 22.3379 49.3949 22.9059C49.3616 22.4526 49.3149 22.0019 49.2563 21.5566C51.1869 20.9993 53.227 20.7006 55.3363 20.7006C67.423 20.7006 77.2203 30.4966 77.2203 42.5846C77.2203 54.6712 67.423 64.4686 55.3363 64.4686V64.4686ZM33.5563 40.4339C34.1923 33.9033 37.699 28.2166 42.799 24.6459C42.799 24.6872 42.799 24.7299 42.799 24.7712C42.799 25.3046 42.7763 25.8326 42.7296 26.3526C42.0536 26.8792 41.411 27.4472 40.8043 28.0526C37.763 31.0952 35.671 35.0806 35.0096 39.5366C34.5403 39.8579 34.0549 40.1579 33.5563 40.4339" fill="#ADADAD"/>
<path d="M34.0244 47.5765C33.6497 45.9739 33.451 44.3019 33.451 42.5845C33.451 41.8592 33.487 41.1419 33.5564 40.4339C34.055 40.1579 34.5404 39.8579 35.0097 39.5366C34.8617 40.5312 34.7844 41.5485 34.7844 42.5845C34.7844 44.1139 34.9524 45.6045 35.2684 47.0379C34.8604 47.2285 34.4444 47.4085 34.0244 47.5765ZM42.7297 26.3525C42.7764 25.8325 42.799 25.3045 42.799 24.7712C42.799 24.7299 42.799 24.6872 42.799 24.6459C44.743 23.2845 46.9204 22.2312 49.2564 21.5566C49.315 22.0019 49.3617 22.4526 49.395 22.9059C46.951 23.6419 44.6977 24.8218 42.7297 26.3525" fill="black"/>
</svg>
