<svg width="24" height="24" viewBox="0 0 24 24" fill="none" xmlns="http://www.w3.org/2000/svg">
<path d="M16.2645 18.7745L14.4912 15.9518C13.6485 16.4811 12.7378 16.7238 11.8218 16.7252C10.9872 16.7252 10.1552 16.5158 9.42184 16.1185C8.68584 15.7198 8.04985 15.1451 7.56585 14.3771V14.3745C7.03652 13.5318 6.79251 12.6211 6.79118 11.7051C6.79118 10.8718 7.00049 10.0412 7.39782 9.30649C7.79515 8.57183 8.37113 7.93581 9.13779 7.45181C9.97779 6.92647 10.8858 6.6825 11.8032 6.68117C12.6378 6.68117 13.4712 6.89047 14.2058 7.28781C14.9418 7.68647 15.5792 8.26248 16.0632 9.02915L16.0645 9.03182C16.5912 9.87049 16.8338 10.7798 16.8351 11.6958C16.8365 12.5305 16.6258 13.3625 16.2285 14.0985C15.8298 14.8345 15.2538 15.4718 14.4885 15.9545L14.4912 15.9518L16.2645 18.7745L18.0405 21.5958C19.7965 20.4918 21.1725 18.9772 22.0952 17.2652C23.0205 15.5505 23.5018 13.6371 23.5018 11.6958C23.5045 9.57048 22.9178 7.40247 21.7045 5.4798L21.7058 5.48117C20.6018 3.72383 19.0871 2.34518 17.3738 1.42251C15.6591 0.497176 13.7445 0.0145013 11.8032 0.0145013C9.67916 0.013168 7.51115 0.598496 5.58981 1.80916C3.83248 2.91183 2.45519 4.42513 1.53252 6.13846C0.607188 7.85179 0.124514 9.76379 0.124514 11.7051C0.123181 13.8318 0.709845 16.0012 1.92184 17.9252V17.9238C3.02451 19.6811 4.53914 21.0598 6.25114 21.9838C7.96581 22.9092 9.87918 23.3918 11.8218 23.3918C13.9458 23.3932 16.1138 22.8078 18.0378 21.5971L18.0405 21.5958L16.2645 18.7745Z" fill="black"/>
</svg>
