<svg width="143" height="124" viewBox="0 0 143 124" fill="none" xmlns="http://www.w3.org/2000/svg">
<path fill-rule="evenodd" clip-rule="evenodd" d="M2.46405 3.81287C3.29248 3.81287 3.96405 3.14129 3.96405 2.31287C3.96405 1.48444 3.29248 0.812866 2.46405 0.812866C1.63562 0.812866 0.96405 1.48444 0.96405 2.31287C0.96405 3.14129 1.63562 3.81287 2.46405 3.81287Z" fill="black"/>
<path fill-rule="evenodd" clip-rule="evenodd" d="M22.4641 3.81287C23.2925 3.81287 23.9641 3.14129 23.9641 2.31287C23.9641 1.48444 23.2925 0.812866 22.4641 0.812866C21.6356 0.812866 20.9641 1.48444 20.9641 2.31287C20.9641 3.14129 21.6356 3.81287 22.4641 3.81287Z" fill="black"/>
<path fill-rule="evenodd" clip-rule="evenodd" d="M2.46405 23.8129C3.29248 23.8129 3.96405 23.1413 3.96405 22.3129C3.96405 21.4844 3.29248 20.8129 2.46405 20.8129C1.63562 20.8129 0.96405 21.4844 0.96405 22.3129C0.96405 23.1413 1.63562 23.8129 2.46405 23.8129Z" fill="black"/>
<path fill-rule="evenodd" clip-rule="evenodd" d="M22.4641 23.8129C23.2925 23.8129 23.9641 23.1413 23.9641 22.3129C23.9641 21.4844 23.2925 20.8129 22.4641 20.8129C21.6356 20.8129 20.9641 21.4844 20.9641 22.3129C20.9641 23.1413 21.6356 23.8129 22.4641 23.8129Z" fill="black"/>
<path fill-rule="evenodd" clip-rule="evenodd" d="M2.46405 43.8129C3.29248 43.8129 3.96405 43.1413 3.96405 42.3129C3.96405 41.4844 3.29248 40.8129 2.46405 40.8129C1.63562 40.8129 0.96405 41.4844 0.96405 42.3129C0.96405 43.1413 1.63562 43.8129 2.46405 43.8129Z" fill="black"/>
<path fill-rule="evenodd" clip-rule="evenodd" d="M22.4641 43.8129C23.2925 43.8129 23.9641 43.1413 23.9641 42.3129C23.9641 41.4844 23.2925 40.8129 22.4641 40.8129C21.6356 40.8129 20.9641 41.4844 20.9641 42.3129C20.9641 43.1413 21.6356 43.8129 22.4641 43.8129Z" fill="black"/>
<path fill-rule="evenodd" clip-rule="evenodd" d="M2.46405 63.8129C3.29248 63.8129 3.96405 63.1413 3.96405 62.3129C3.96405 61.4844 3.29248 60.8129 2.46405 60.8129C1.63562 60.8129 0.96405 61.4844 0.96405 62.3129C0.96405 63.1413 1.63562 63.8129 2.46405 63.8129Z" fill="black"/>
<path fill-rule="evenodd" clip-rule="evenodd" d="M22.4641 63.8129C23.2925 63.8129 23.9641 63.1413 23.9641 62.3129C23.9641 61.4844 23.2925 60.8129 22.4641 60.8129C21.6356 60.8129 20.9641 61.4844 20.9641 62.3129C20.9641 63.1413 21.6356 63.8129 22.4641 63.8129Z" fill="black"/>
<path fill-rule="evenodd" clip-rule="evenodd" d="M42.4641 3.81287C43.2925 3.81287 43.9641 3.14129 43.9641 2.31287C43.9641 1.48444 43.2925 0.812866 42.4641 0.812866C41.6356 0.812866 40.9641 1.48444 40.9641 2.31287C40.9641 3.14129 41.6356 3.81287 42.4641 3.81287Z" fill="black"/>
<path fill-rule="evenodd" clip-rule="evenodd" d="M62.4641 3.81287C63.2925 3.81287 63.9641 3.14129 63.9641 2.31287C63.9641 1.48444 63.2925 0.812866 62.4641 0.812866C61.6356 0.812866 60.9641 1.48444 60.9641 2.31287C60.9641 3.14129 61.6356 3.81287 62.4641 3.81287Z" fill="black"/>
<path fill-rule="evenodd" clip-rule="evenodd" d="M42.4641 23.8129C43.2925 23.8129 43.9641 23.1413 43.9641 22.3129C43.9641 21.4844 43.2925 20.8129 42.4641 20.8129C41.6356 20.8129 40.9641 21.4844 40.9641 22.3129C40.9641 23.1413 41.6356 23.8129 42.4641 23.8129Z" fill="black"/>
<path fill-rule="evenodd" clip-rule="evenodd" d="M62.4641 23.8129C63.2925 23.8129 63.9641 23.1413 63.9641 22.3129C63.9641 21.4844 63.2925 20.8129 62.4641 20.8129C61.6356 20.8129 60.9641 21.4844 60.9641 22.3129C60.9641 23.1413 61.6356 23.8129 62.4641 23.8129Z" fill="black"/>
<path fill-rule="evenodd" clip-rule="evenodd" d="M42.4641 43.8129C43.2925 43.8129 43.9641 43.1413 43.9641 42.3129C43.9641 41.4844 43.2925 40.8129 42.4641 40.8129C41.6356 40.8129 40.9641 41.4844 40.9641 42.3129C40.9641 43.1413 41.6356 43.8129 42.4641 43.8129Z" fill="black"/>
<path fill-rule="evenodd" clip-rule="evenodd" d="M62.4641 43.8129C63.2925 43.8129 63.9641 43.1413 63.9641 42.3129C63.9641 41.4844 63.2925 40.8129 62.4641 40.8129C61.6356 40.8129 60.9641 41.4844 60.9641 42.3129C60.9641 43.1413 61.6356 43.8129 62.4641 43.8129Z" fill="black"/>
<path fill-rule="evenodd" clip-rule="evenodd" d="M42.4641 63.8129C43.2925 63.8129 43.9641 63.1413 43.9641 62.3129C43.9641 61.4844 43.2925 60.8129 42.4641 60.8129C41.6356 60.8129 40.9641 61.4844 40.9641 62.3129C40.9641 63.1413 41.6356 63.8129 42.4641 63.8129Z" fill="black"/>
<path fill-rule="evenodd" clip-rule="evenodd" d="M62.4641 63.8129C63.2925 63.8129 63.9641 63.1413 63.9641 62.3129C63.9641 61.4844 63.2925 60.8129 62.4641 60.8129C61.6356 60.8129 60.9641 61.4844 60.9641 62.3129C60.9641 63.1413 61.6356 63.8129 62.4641 63.8129Z" fill="black"/>
<path fill-rule="evenodd" clip-rule="evenodd" d="M2.46405 63.8129C3.29248 63.8129 3.96405 63.1413 3.96405 62.3129C3.96405 61.4844 3.29248 60.8129 2.46405 60.8129C1.63562 60.8129 0.96405 61.4844 0.96405 62.3129C0.96405 63.1413 1.63562 63.8129 2.46405 63.8129Z" fill="black"/>
<path fill-rule="evenodd" clip-rule="evenodd" d="M22.4641 63.8129C23.2925 63.8129 23.9641 63.1413 23.9641 62.3129C23.9641 61.4844 23.2925 60.8129 22.4641 60.8129C21.6356 60.8129 20.9641 61.4844 20.9641 62.3129C20.9641 63.1413 21.6356 63.8129 22.4641 63.8129Z" fill="black"/>
<path fill-rule="evenodd" clip-rule="evenodd" d="M2.46405 83.8129C3.29248 83.8129 3.96405 83.1413 3.96405 82.3129C3.96405 81.4844 3.29248 80.8129 2.46405 80.8129C1.63562 80.8129 0.96405 81.4844 0.96405 82.3129C0.96405 83.1413 1.63562 83.8129 2.46405 83.8129Z" fill="black"/>
<path fill-rule="evenodd" clip-rule="evenodd" d="M22.4641 83.8129C23.2925 83.8129 23.9641 83.1413 23.9641 82.3129C23.9641 81.4844 23.2925 80.8129 22.4641 80.8129C21.6356 80.8129 20.9641 81.4844 20.9641 82.3129C20.9641 83.1413 21.6356 83.8129 22.4641 83.8129Z" fill="black"/>
<path fill-rule="evenodd" clip-rule="evenodd" d="M2.46405 103.813C3.29248 103.813 3.96405 103.141 3.96405 102.313C3.96405 101.484 3.29248 100.813 2.46405 100.813C1.63562 100.813 0.96405 101.484 0.96405 102.313C0.96405 103.141 1.63562 103.813 2.46405 103.813Z" fill="black"/>
<path fill-rule="evenodd" clip-rule="evenodd" d="M22.4641 103.813C23.2925 103.813 23.9641 103.141 23.9641 102.313C23.9641 101.484 23.2925 100.813 22.4641 100.813C21.6356 100.813 20.9641 101.484 20.9641 102.313C20.9641 103.141 21.6356 103.813 22.4641 103.813Z" fill="black"/>
<path fill-rule="evenodd" clip-rule="evenodd" d="M2.46405 123.813C3.29248 123.813 3.96405 123.141 3.96405 122.313C3.96405 121.484 3.29248 120.813 2.46405 120.813C1.63562 120.813 0.96405 121.484 0.96405 122.313C0.96405 123.141 1.63562 123.813 2.46405 123.813Z" fill="black"/>
<path fill-rule="evenodd" clip-rule="evenodd" d="M22.4641 123.813C23.2925 123.813 23.9641 123.141 23.9641 122.313C23.9641 121.484 23.2925 120.813 22.4641 120.813C21.6356 120.813 20.9641 121.484 20.9641 122.313C20.9641 123.141 21.6356 123.813 22.4641 123.813Z" fill="black"/>
<path fill-rule="evenodd" clip-rule="evenodd" d="M42.4641 63.8129C43.2925 63.8129 43.9641 63.1413 43.9641 62.3129C43.9641 61.4844 43.2925 60.8129 42.4641 60.8129C41.6356 60.8129 40.9641 61.4844 40.9641 62.3129C40.9641 63.1413 41.6356 63.8129 42.4641 63.8129Z" fill="black"/>
<path fill-rule="evenodd" clip-rule="evenodd" d="M62.4641 63.8129C63.2925 63.8129 63.9641 63.1413 63.9641 62.3129C63.9641 61.4844 63.2925 60.8129 62.4641 60.8129C61.6356 60.8129 60.9641 61.4844 60.9641 62.3129C60.9641 63.1413 61.6356 63.8129 62.4641 63.8129Z" fill="black"/>
<path fill-rule="evenodd" clip-rule="evenodd" d="M42.4641 83.8129C43.2925 83.8129 43.9641 83.1413 43.9641 82.3129C43.9641 81.4844 43.2925 80.8129 42.4641 80.8129C41.6356 80.8129 40.9641 81.4844 40.9641 82.3129C40.9641 83.1413 41.6356 83.8129 42.4641 83.8129Z" fill="black"/>
<path fill-rule="evenodd" clip-rule="evenodd" d="M62.4641 83.8129C63.2925 83.8129 63.9641 83.1413 63.9641 82.3129C63.9641 81.4844 63.2925 80.8129 62.4641 80.8129C61.6356 80.8129 60.9641 81.4844 60.9641 82.3129C60.9641 83.1413 61.6356 83.8129 62.4641 83.8129Z" fill="black"/>
<path fill-rule="evenodd" clip-rule="evenodd" d="M42.4641 103.813C43.2925 103.813 43.9641 103.141 43.9641 102.313C43.9641 101.484 43.2925 100.813 42.4641 100.813C41.6356 100.813 40.9641 101.484 40.9641 102.313C40.9641 103.141 41.6356 103.813 42.4641 103.813Z" fill="black"/>
<path fill-rule="evenodd" clip-rule="evenodd" d="M62.4641 103.813C63.2925 103.813 63.9641 103.141 63.9641 102.313C63.9641 101.484 63.2925 100.813 62.4641 100.813C61.6356 100.813 60.9641 101.484 60.9641 102.313C60.9641 103.141 61.6356 103.813 62.4641 103.813Z" fill="black"/>
<path fill-rule="evenodd" clip-rule="evenodd" d="M42.4641 123.813C43.2925 123.813 43.9641 123.141 43.9641 122.313C43.9641 121.484 43.2925 120.813 42.4641 120.813C41.6356 120.813 40.9641 121.484 40.9641 122.313C40.9641 123.141 41.6356 123.813 42.4641 123.813Z" fill="black"/>
<path fill-rule="evenodd" clip-rule="evenodd" d="M62.4641 123.813C63.2925 123.813 63.9641 123.141 63.9641 122.313C63.9641 121.484 63.2925 120.813 62.4641 120.813C61.6356 120.813 60.9641 121.484 60.9641 122.313C60.9641 123.141 61.6356 123.813 62.4641 123.813Z" fill="black"/>
<path fill-rule="evenodd" clip-rule="evenodd" d="M81.4641 3.81287C82.2925 3.81287 82.9641 3.14129 82.9641 2.31287C82.9641 1.48444 82.2925 0.812866 81.4641 0.812866C80.6356 0.812866 79.9641 1.48444 79.9641 2.31287C79.9641 3.14129 80.6356 3.81287 81.4641 3.81287Z" fill="black"/>
<path fill-rule="evenodd" clip-rule="evenodd" d="M101.464 3.81287C102.292 3.81287 102.964 3.14129 102.964 2.31287C102.964 1.48444 102.292 0.812866 101.464 0.812866C100.636 0.812866 99.9641 1.48444 99.9641 2.31287C99.9641 3.14129 100.636 3.81287 101.464 3.81287Z" fill="black"/>
<path fill-rule="evenodd" clip-rule="evenodd" d="M81.4641 23.8129C82.2925 23.8129 82.9641 23.1413 82.9641 22.3129C82.9641 21.4844 82.2925 20.8129 81.4641 20.8129C80.6356 20.8129 79.9641 21.4844 79.9641 22.3129C79.9641 23.1413 80.6356 23.8129 81.4641 23.8129Z" fill="black"/>
<path fill-rule="evenodd" clip-rule="evenodd" d="M101.464 23.8129C102.292 23.8129 102.964 23.1413 102.964 22.3129C102.964 21.4844 102.292 20.8129 101.464 20.8129C100.636 20.8129 99.9641 21.4844 99.9641 22.3129C99.9641 23.1413 100.636 23.8129 101.464 23.8129Z" fill="black"/>
<path fill-rule="evenodd" clip-rule="evenodd" d="M81.4641 43.8129C82.2925 43.8129 82.9641 43.1413 82.9641 42.3129C82.9641 41.4844 82.2925 40.8129 81.4641 40.8129C80.6356 40.8129 79.9641 41.4844 79.9641 42.3129C79.9641 43.1413 80.6356 43.8129 81.4641 43.8129Z" fill="black"/>
<path fill-rule="evenodd" clip-rule="evenodd" d="M101.464 43.8129C102.292 43.8129 102.964 43.1413 102.964 42.3129C102.964 41.4844 102.292 40.8129 101.464 40.8129C100.636 40.8129 99.9641 41.4844 99.9641 42.3129C99.9641 43.1413 100.636 43.8129 101.464 43.8129Z" fill="black"/>
<path fill-rule="evenodd" clip-rule="evenodd" d="M81.4641 63.8129C82.2925 63.8129 82.9641 63.1413 82.9641 62.3129C82.9641 61.4844 82.2925 60.8129 81.4641 60.8129C80.6356 60.8129 79.9641 61.4844 79.9641 62.3129C79.9641 63.1413 80.6356 63.8129 81.4641 63.8129Z" fill="black"/>
<path fill-rule="evenodd" clip-rule="evenodd" d="M101.464 63.8129C102.292 63.8129 102.964 63.1413 102.964 62.3129C102.964 61.4844 102.292 60.8129 101.464 60.8129C100.636 60.8129 99.9641 61.4844 99.9641 62.3129C99.9641 63.1413 100.636 63.8129 101.464 63.8129Z" fill="black"/>
<path fill-rule="evenodd" clip-rule="evenodd" d="M121.464 3.81287C122.292 3.81287 122.964 3.14129 122.964 2.31287C122.964 1.48444 122.292 0.812866 121.464 0.812866C120.636 0.812866 119.964 1.48444 119.964 2.31287C119.964 3.14129 120.636 3.81287 121.464 3.81287Z" fill="black"/>
<path fill-rule="evenodd" clip-rule="evenodd" d="M141.464 3.81287C142.292 3.81287 142.964 3.14129 142.964 2.31287C142.964 1.48444 142.292 0.812866 141.464 0.812866C140.636 0.812866 139.964 1.48444 139.964 2.31287C139.964 3.14129 140.636 3.81287 141.464 3.81287Z" fill="black"/>
<path fill-rule="evenodd" clip-rule="evenodd" d="M121.464 23.8129C122.292 23.8129 122.964 23.1413 122.964 22.3129C122.964 21.4844 122.292 20.8129 121.464 20.8129C120.636 20.8129 119.964 21.4844 119.964 22.3129C119.964 23.1413 120.636 23.8129 121.464 23.8129Z" fill="black"/>
<path fill-rule="evenodd" clip-rule="evenodd" d="M141.464 23.8129C142.292 23.8129 142.964 23.1413 142.964 22.3129C142.964 21.4844 142.292 20.8129 141.464 20.8129C140.636 20.8129 139.964 21.4844 139.964 22.3129C139.964 23.1413 140.636 23.8129 141.464 23.8129Z" fill="black"/>
<path fill-rule="evenodd" clip-rule="evenodd" d="M121.464 43.8129C122.292 43.8129 122.964 43.1413 122.964 42.3129C122.964 41.4844 122.292 40.8129 121.464 40.8129C120.636 40.8129 119.964 41.4844 119.964 42.3129C119.964 43.1413 120.636 43.8129 121.464 43.8129Z" fill="black"/>
<path fill-rule="evenodd" clip-rule="evenodd" d="M141.464 43.8129C142.292 43.8129 142.964 43.1413 142.964 42.3129C142.964 41.4844 142.292 40.8129 141.464 40.8129C140.636 40.8129 139.964 41.4844 139.964 42.3129C139.964 43.1413 140.636 43.8129 141.464 43.8129Z" fill="black"/>
<path fill-rule="evenodd" clip-rule="evenodd" d="M121.464 63.8129C122.292 63.8129 122.964 63.1413 122.964 62.3129C122.964 61.4844 122.292 60.8129 121.464 60.8129C120.636 60.8129 119.964 61.4844 119.964 62.3129C119.964 63.1413 120.636 63.8129 121.464 63.8129Z" fill="black"/>
<path fill-rule="evenodd" clip-rule="evenodd" d="M141.464 63.8129C142.292 63.8129 142.964 63.1413 142.964 62.3129C142.964 61.4844 142.292 60.8129 141.464 60.8129C140.636 60.8129 139.964 61.4844 139.964 62.3129C139.964 63.1413 140.636 63.8129 141.464 63.8129Z" fill="black"/>
<path fill-rule="evenodd" clip-rule="evenodd" d="M81.4641 63.8129C82.2925 63.8129 82.9641 63.1413 82.9641 62.3129C82.9641 61.4844 82.2925 60.8129 81.4641 60.8129C80.6356 60.8129 79.9641 61.4844 79.9641 62.3129C79.9641 63.1413 80.6356 63.8129 81.4641 63.8129Z" fill="black"/>
<path fill-rule="evenodd" clip-rule="evenodd" d="M101.464 63.8129C102.292 63.8129 102.964 63.1413 102.964 62.3129C102.964 61.4844 102.292 60.8129 101.464 60.8129C100.636 60.8129 99.9641 61.4844 99.9641 62.3129C99.9641 63.1413 100.636 63.8129 101.464 63.8129Z" fill="black"/>
<path fill-rule="evenodd" clip-rule="evenodd" d="M81.4641 83.8129C82.2925 83.8129 82.9641 83.1413 82.9641 82.3129C82.9641 81.4844 82.2925 80.8129 81.4641 80.8129C80.6356 80.8129 79.9641 81.4844 79.9641 82.3129C79.9641 83.1413 80.6356 83.8129 81.4641 83.8129Z" fill="black"/>
<path fill-rule="evenodd" clip-rule="evenodd" d="M101.464 83.8129C102.292 83.8129 102.964 83.1413 102.964 82.3129C102.964 81.4844 102.292 80.8129 101.464 80.8129C100.636 80.8129 99.9641 81.4844 99.9641 82.3129C99.9641 83.1413 100.636 83.8129 101.464 83.8129Z" fill="black"/>
<path fill-rule="evenodd" clip-rule="evenodd" d="M81.4641 103.813C82.2925 103.813 82.9641 103.141 82.9641 102.313C82.9641 101.484 82.2925 100.813 81.4641 100.813C80.6356 100.813 79.9641 101.484 79.9641 102.313C79.9641 103.141 80.6356 103.813 81.4641 103.813Z" fill="black"/>
<path fill-rule="evenodd" clip-rule="evenodd" d="M101.464 103.813C102.292 103.813 102.964 103.141 102.964 102.313C102.964 101.484 102.292 100.813 101.464 100.813C100.636 100.813 99.9641 101.484 99.9641 102.313C99.9641 103.141 100.636 103.813 101.464 103.813Z" fill="black"/>
<path fill-rule="evenodd" clip-rule="evenodd" d="M81.4641 123.813C82.2925 123.813 82.9641 123.141 82.9641 122.313C82.9641 121.484 82.2925 120.813 81.4641 120.813C80.6356 120.813 79.9641 121.484 79.9641 122.313C79.9641 123.141 80.6356 123.813 81.4641 123.813Z" fill="black"/>
<path fill-rule="evenodd" clip-rule="evenodd" d="M101.464 123.813C102.292 123.813 102.964 123.141 102.964 122.313C102.964 121.484 102.292 120.813 101.464 120.813C100.636 120.813 99.9641 121.484 99.9641 122.313C99.9641 123.141 100.636 123.813 101.464 123.813Z" fill="black"/>
<path fill-rule="evenodd" clip-rule="evenodd" d="M121.464 63.8129C122.292 63.8129 122.964 63.1413 122.964 62.3129C122.964 61.4844 122.292 60.8129 121.464 60.8129C120.636 60.8129 119.964 61.4844 119.964 62.3129C119.964 63.1413 120.636 63.8129 121.464 63.8129Z" fill="black"/>
<path fill-rule="evenodd" clip-rule="evenodd" d="M141.464 63.8129C142.292 63.8129 142.964 63.1413 142.964 62.3129C142.964 61.4844 142.292 60.8129 141.464 60.8129C140.636 60.8129 139.964 61.4844 139.964 62.3129C139.964 63.1413 140.636 63.8129 141.464 63.8129Z" fill="black"/>
<path fill-rule="evenodd" clip-rule="evenodd" d="M121.464 83.8129C122.292 83.8129 122.964 83.1413 122.964 82.3129C122.964 81.4844 122.292 80.8129 121.464 80.8129C120.636 80.8129 119.964 81.4844 119.964 82.3129C119.964 83.1413 120.636 83.8129 121.464 83.8129Z" fill="black"/>
<path fill-rule="evenodd" clip-rule="evenodd" d="M141.464 83.8129C142.292 83.8129 142.964 83.1413 142.964 82.3129C142.964 81.4844 142.292 80.8129 141.464 80.8129C140.636 80.8129 139.964 81.4844 139.964 82.3129C139.964 83.1413 140.636 83.8129 141.464 83.8129Z" fill="black"/>
<path fill-rule="evenodd" clip-rule="evenodd" d="M121.464 103.813C122.292 103.813 122.964 103.141 122.964 102.313C122.964 101.484 122.292 100.813 121.464 100.813C120.636 100.813 119.964 101.484 119.964 102.313C119.964 103.141 120.636 103.813 121.464 103.813Z" fill="black"/>
<path fill-rule="evenodd" clip-rule="evenodd" d="M141.464 103.813C142.292 103.813 142.964 103.141 142.964 102.313C142.964 101.484 142.292 100.813 141.464 100.813C140.636 100.813 139.964 101.484 139.964 102.313C139.964 103.141 140.636 103.813 141.464 103.813Z" fill="black"/>
<path fill-rule="evenodd" clip-rule="evenodd" d="M121.464 123.813C122.292 123.813 122.964 123.141 122.964 122.313C122.964 121.484 122.292 120.813 121.464 120.813C120.636 120.813 119.964 121.484 119.964 122.313C119.964 123.141 120.636 123.813 121.464 123.813Z" fill="black"/>
<path fill-rule="evenodd" clip-rule="evenodd" d="M141.464 123.813C142.292 123.813 142.964 123.141 142.964 122.313C142.964 121.484 142.292 120.813 141.464 120.813C140.636 120.813 139.964 121.484 139.964 122.313C139.964 123.141 140.636 123.813 141.464 123.813Z" fill="black"/>
</svg>
