<svg width="51" height="32" viewBox="0 0 51 32" fill="none" xmlns="http://www.w3.org/2000/svg">
<path fill-rule="evenodd" clip-rule="evenodd" d="M2.38713 17.5612C3.44921 17.5612 4.3102 16.7002 4.3102 15.6381C4.3102 14.576 3.44921 13.715 2.38713 13.715C1.32504 13.715 0.46405 14.576 0.46405 15.6381C0.46405 16.7002 1.32504 17.5612 2.38713 17.5612Z" fill="black"/>
<path fill-rule="evenodd" clip-rule="evenodd" d="M13.9256 17.5612C14.9877 17.5612 15.8487 16.7002 15.8487 15.6381C15.8487 14.576 14.9877 13.715 13.9256 13.715C12.8635 13.715 12.0025 14.576 12.0025 15.6381C12.0025 16.7002 12.8635 17.5612 13.9256 17.5612Z" fill="black"/>
<path fill-rule="evenodd" clip-rule="evenodd" d="M25.464 17.5612C26.5261 17.5612 27.3871 16.7002 27.3871 15.6381C27.3871 14.576 26.5261 13.715 25.464 13.715C24.4019 13.715 23.541 14.576 23.541 15.6381C23.541 16.7002 24.4019 17.5612 25.464 17.5612Z" fill="black"/>
<path fill-rule="evenodd" clip-rule="evenodd" d="M37.0025 17.5612C38.0646 17.5612 38.9256 16.7002 38.9256 15.6381C38.9256 14.576 38.0646 13.715 37.0025 13.715C35.9404 13.715 35.0794 14.576 35.0794 15.6381C35.0794 16.7002 35.9404 17.5612 37.0025 17.5612Z" fill="black"/>
<path fill-rule="evenodd" clip-rule="evenodd" d="M48.541 17.5612C49.6031 17.5612 50.4641 16.7002 50.4641 15.6381C50.4641 14.576 49.6031 13.715 48.541 13.715C47.4789 13.715 46.6179 14.576 46.6179 15.6381C46.6179 16.7002 47.4789 17.5612 48.541 17.5612Z" fill="black"/>
<path fill-rule="evenodd" clip-rule="evenodd" d="M2.38713 31.0227C3.44921 31.0227 4.3102 30.1617 4.3102 29.0996C4.3102 28.0375 3.44921 27.1765 2.38713 27.1765C1.32504 27.1765 0.46405 28.0375 0.46405 29.0996C0.46405 30.1617 1.32504 31.0227 2.38713 31.0227Z" fill="black"/>
<path fill-rule="evenodd" clip-rule="evenodd" d="M13.9256 31.0227C14.9877 31.0227 15.8487 30.1617 15.8487 29.0996C15.8487 28.0375 14.9877 27.1765 13.9256 27.1765C12.8635 27.1765 12.0025 28.0375 12.0025 29.0996C12.0025 30.1617 12.8635 31.0227 13.9256 31.0227Z" fill="black"/>
<path fill-rule="evenodd" clip-rule="evenodd" d="M25.464 31.0227C26.5261 31.0227 27.3871 30.1617 27.3871 29.0996C27.3871 28.0375 26.5261 27.1765 25.464 27.1765C24.4019 27.1765 23.541 28.0375 23.541 29.0996C23.541 30.1617 24.4019 31.0227 25.464 31.0227Z" fill="black"/>
<path fill-rule="evenodd" clip-rule="evenodd" d="M37.0025 31.0227C38.0646 31.0227 38.9256 30.1617 38.9256 29.0996C38.9256 28.0375 38.0646 27.1765 37.0025 27.1765C35.9404 27.1765 35.0794 28.0375 35.0794 29.0996C35.0794 30.1617 35.9404 31.0227 37.0025 31.0227Z" fill="black"/>
<path fill-rule="evenodd" clip-rule="evenodd" d="M48.541 31.0227C49.6031 31.0227 50.4641 30.1617 50.4641 29.0996C50.4641 28.0375 49.6031 27.1765 48.541 27.1765C47.4789 27.1765 46.6179 28.0375 46.6179 29.0996C46.6179 30.1617 47.4789 31.0227 48.541 31.0227Z" fill="black"/>
<path fill-rule="evenodd" clip-rule="evenodd" d="M2.38713 4.09963C3.44921 4.09963 4.3102 3.23864 4.3102 2.17656C4.3102 1.11447 3.44921 0.253479 2.38713 0.253479C1.32504 0.253479 0.46405 1.11447 0.46405 2.17656C0.46405 3.23864 1.32504 4.09963 2.38713 4.09963Z" fill="black"/>
<path fill-rule="evenodd" clip-rule="evenodd" d="M13.9256 4.09963C14.9877 4.09963 15.8487 3.23864 15.8487 2.17656C15.8487 1.11447 14.9877 0.253479 13.9256 0.253479C12.8635 0.253479 12.0025 1.11447 12.0025 2.17656C12.0025 3.23864 12.8635 4.09963 13.9256 4.09963Z" fill="black"/>
<path fill-rule="evenodd" clip-rule="evenodd" d="M25.464 4.09963C26.5261 4.09963 27.3871 3.23864 27.3871 2.17656C27.3871 1.11447 26.5261 0.253479 25.464 0.253479C24.4019 0.253479 23.541 1.11447 23.541 2.17656C23.541 3.23864 24.4019 4.09963 25.464 4.09963Z" fill="black"/>
<path fill-rule="evenodd" clip-rule="evenodd" d="M37.0025 4.09963C38.0646 4.09963 38.9256 3.23864 38.9256 2.17656C38.9256 1.11447 38.0646 0.253479 37.0025 0.253479C35.9404 0.253479 35.0794 1.11447 35.0794 2.17656C35.0794 3.23864 35.9404 4.09963 37.0025 4.09963Z" fill="black"/>
<path fill-rule="evenodd" clip-rule="evenodd" d="M48.541 4.09963C49.6031 4.09963 50.4641 3.23864 50.4641 2.17656C50.4641 1.11447 49.6031 0.253479 48.541 0.253479C47.4789 0.253479 46.6179 1.11447 46.6179 2.17656C46.6179 3.23864 47.4789 4.09963 48.541 4.09963Z" fill="black"/>
</svg>
