<svg width="90" height="77" viewBox="0 0 90 77" fill="none" xmlns="http://www.w3.org/2000/svg">
<path d="M50.5658 30.4598L53.7858 31.3198L61.0085 4.29578C61.3165 3.14512 60.9872 1.91713 60.1445 1.0758C59.3005 0.234464 58.0725 -0.0934972 56.9231 0.215836L29.9205 7.47847H29.9218L2.90582 14.7345C1.75515 15.0438 0.857815 15.9438 0.549815 17.0945C0.243148 18.2438 0.572496 19.4718 1.41516 20.3132L21.2058 40.0705L21.2045 40.0692L40.9912 59.8371C41.8338 60.6785 43.0618 61.0078 44.2112 60.6984C45.3618 60.3891 46.2605 59.4905 46.5671 58.3398L53.7858 31.3198L50.5658 30.4598L47.3458 29.5984L41.6178 51.0398L25.9165 35.3531L25.9152 35.3518L10.2125 19.6745L31.6511 13.9171H31.6525L53.0765 8.15314L47.3458 29.5984L50.5658 30.4598" fill="black"/>
<path d="M74.115 76.5798L53.511 55.9958L48.5243 51.0158L48.9216 49.5291L54.4536 55.0518L73.423 74.0038L80.343 48.0998L87.2683 22.1918L61.3803 29.1545L53.823 31.1852L54.2203 29.6972L61.035 27.8665L89.1523 20.3038L81.6323 48.4438L74.115 76.5798V76.5798ZM43.0763 45.5772L32.9043 35.4225L46.7856 31.6945L46.3883 33.1811L35.4803 36.1105L43.4736 44.0905L43.0763 45.5772Z" fill="#ADADAD"/>
<path d="M48.5243 51.0158L43.0763 45.5771L43.4736 44.0905L48.9216 49.5291L48.5243 51.0158ZM46.3883 33.1811L46.7856 31.6945L54.2203 29.6971L53.823 31.1851L46.3883 33.1811" fill="black"/>
</svg>
