<svg width="51" height="51" viewBox="0 0 51 51" fill="none" xmlns="http://www.w3.org/2000/svg">
<path d="M41.9241 25.4614L44.5772 26.17L50.5282 3.90415C50.7819 2.95608 50.5106 1.94431 49.8163 1.25111C49.1209 0.55791 48.1091 0.287694 47.1621 0.542562L24.9138 6.52646H24.9149L2.65567 12.5049C1.7076 12.7597 0.968255 13.5013 0.714484 14.4494C0.461813 15.3963 0.733172 16.4081 1.42747 17.1013L17.7336 33.38L17.7325 33.3789L34.0353 49.6663C34.7296 50.3595 35.7414 50.6308 36.6884 50.376C37.6364 50.1211 38.3768 49.3807 38.6295 48.4326L44.5772 26.17L41.9241 25.4614L39.2711 24.7518L34.5516 42.4179L21.6148 29.4932L21.6137 29.4921L8.67585 16.5751L26.3398 11.8315H26.3409L43.9928 7.08234L39.2711 24.7518L41.9241 25.4614" fill="black"/>
</svg>
