<svg width="63" height="56" viewBox="0 0 63 56" fill="none" xmlns="http://www.w3.org/2000/svg">
<path d="M45.641 28.2254L48.5264 26.5561L34.5237 2.34009C33.9277 1.30942 32.8264 0.674755 31.6357 0.674755C30.445 0.676088 29.3437 1.31342 28.749 2.34409L14.7917 26.5734L0.819678 50.8068C0.225012 51.8388 0.226348 53.1094 0.822348 54.1414C1.41835 55.1721 2.5197 55.8068 3.71037 55.8054L31.6744 55.7828L59.6423 55.7694C60.833 55.7681 61.933 55.1321 62.5277 54.1001C63.1223 53.0694 63.1224 51.7988 62.5264 50.7668L48.5264 26.5561L45.641 28.2254L42.7544 29.8934L53.8637 49.1054L31.6703 49.1161L9.4797 49.1348L20.5677 29.9028L31.6437 10.6774L42.7544 29.8934L45.641 28.2254Z" fill="black"/>
</svg>
