<svg width="112" height="39" viewBox="0 0 112 39" fill="none" xmlns="http://www.w3.org/2000/svg">
<path fill-rule="evenodd" clip-rule="evenodd" d="M62.1283 16.6552C61.4683 16.6497 61.0714 16.5297 60.6692 16.3273C60.3204 16.1473 59.9584 15.8699 59.5573 15.4419C58.8548 14.7006 58.0928 13.4846 57.2933 12.0193C57.0743 11.6264 56.8535 11.2162 56.6259 10.7935L56.6258 10.7933L56.6258 10.7932C55.5839 8.85801 54.4019 6.66225 52.6125 4.67394C51.5193 3.46994 50.1636 2.34992 48.4942 1.55526C46.8286 0.756592 44.8781 0.312618 42.75 0.31662L42.7438 0.316626C40.8921 0.31472 39.177 0.64798 37.6653 1.26462C36.3397 1.80195 35.183 2.54728 34.2001 3.39261C32.4767 4.87928 31.2699 6.62862 30.2647 8.30462C29.7026 9.25721 29.1933 10.1963 28.7163 11.0756C27.9315 12.5226 27.2344 13.8079 26.5339 14.7259C25.9798 15.4686 25.4667 15.9499 25.0079 16.2273C24.5399 16.4992 24.1255 16.6445 23.3683 16.6553H23.3671C22.7067 16.6499 22.3094 16.5299 21.9062 16.3273C21.5573 16.1473 21.1953 15.8699 20.7942 15.4419C20.0917 14.7006 19.3291 13.4846 18.5302 12.0193C18.3109 11.6259 18.0898 11.2151 17.862 10.7918C16.8203 8.85667 15.6383 6.66073 13.849 4.67394C12.7557 3.46861 11.3995 2.34859 9.73019 1.55392C8.06459 0.755255 6.11405 0.311249 3.98592 0.315249C2.14472 0.315249 0.652588 1.80858 0.652588 3.64858C0.652588 5.48992 2.14472 6.98192 3.98592 6.98192C5.07085 6.98458 5.87552 7.16327 6.56138 7.43927C7.16045 7.68327 7.68072 8.01258 8.19166 8.44992C9.08179 9.20858 9.92552 10.3393 10.7469 11.7219C11.1889 12.452 11.6141 13.2437 12.0559 14.0665C12.8657 15.5743 13.7317 17.1868 14.8614 18.7179C15.7433 19.8953 16.8255 21.0473 18.2641 21.9233C19.6932 22.8042 21.4776 23.3322 23.3648 23.3219L23.3673 23.3219C25.0101 23.3286 26.5782 22.9366 27.8981 22.2459C29.0563 21.6446 30.0153 20.8459 30.8126 19.9926C32.2063 18.4886 33.1642 16.8246 34.0465 15.2313C34.1757 14.9933 34.3035 14.7566 34.4301 14.5221L34.4306 14.5211L34.4306 14.5211C35.5789 12.3947 36.6355 10.4382 37.8178 9.16061C38.4715 8.44461 39.1267 7.93129 39.8757 7.57262C40.6282 7.21796 41.5033 6.98727 42.7501 6.98327L42.7541 6.98326C43.8369 6.98637 44.6404 7.16496 45.325 7.44061C45.9245 7.68461 46.4442 8.01392 46.9552 8.45125C47.8453 9.20992 48.6885 10.3406 49.51 11.7233C49.9516 12.4527 50.3763 13.2435 50.8177 14.0654L50.8177 14.0655C51.6278 15.5738 52.4941 17.1869 53.6245 18.7179C54.5062 19.8953 55.5885 21.0473 57.0272 21.9233C58.4568 22.8046 60.2428 23.3326 62.1305 23.3219C62.132 23.3219 62.1336 23.3219 62.1352 23.3219C63.7761 23.3265 65.3424 22.9359 66.6611 22.2446C67.8198 21.6446 68.7785 20.8459 69.5745 19.9912C70.9691 18.4886 71.9251 16.8232 72.8078 15.2299C72.9373 14.9913 73.0654 14.7541 73.1924 14.519C74.3402 12.3938 75.3972 10.4367 76.5785 9.16058C77.2331 8.44458 77.8878 7.93126 78.6358 7.57259C79.3772 7.22352 80.2362 6.99455 81.4517 6.98359C83.1947 7.01573 84.6872 5.68913 84.8331 3.92724C84.9865 2.09258 83.6238 0.480579 81.7891 0.328579C81.6545 0.317913 81.5585 0.316601 81.5105 0.316601C79.6571 0.315268 77.9398 0.647249 76.4251 1.26458C75.1011 1.80058 73.9438 2.54724 72.9611 3.39258C71.2371 4.87924 70.0305 6.62859 69.0265 8.30459C68.4643 9.25697 67.9548 10.1962 67.4776 11.0758C66.6928 12.5223 65.9956 13.8075 65.2958 14.7246C64.7411 15.4686 64.2291 15.9499 63.7691 16.2272C63.3011 16.4992 62.8865 16.6446 62.1291 16.6552C62.1289 16.6552 62.1286 16.6552 62.1283 16.6552Z" fill="black"/>
<path fill-rule="evenodd" clip-rule="evenodd" d="M49.1612 36.8072C50.377 37.8206 51.8998 38.4686 53.767 38.4686H53.7888V37.1352C51.6936 37.1246 50.2951 36.2485 49.0306 34.8112C47.9343 33.5585 47.0243 31.8751 46.0669 30.1041L46.0669 30.1041C45.3755 28.8251 44.6594 27.5004 43.8306 26.2592C42.8368 24.7819 41.6664 23.4139 40.1374 22.4112C38.6139 21.4099 36.7352 20.7952 34.4227 20.7952H34.4071V22.1286C37.1904 22.1352 39.091 23.0686 40.6462 24.5032C42.3947 26.1186 43.6421 28.425 44.8804 30.7144L44.8804 30.7144C45.2928 31.4768 45.7042 32.2374 46.1327 32.9699C46.9956 34.4326 47.9368 35.7899 49.1612 36.8072ZM87.9238 36.8072C89.1398 37.8206 90.6624 38.4686 92.5304 38.4686H92.5516H92.5518H92.585C95.0796 38.4686 96.9263 37.3032 98.317 35.6846C99.5579 34.2453 100.525 32.4513 101.496 30.6499C102.17 29.3991 102.846 28.1447 103.617 27.0032C104.552 25.6099 105.612 24.3926 106.933 23.5286C108.257 22.6646 109.842 22.1326 111.932 22.1299H111.933V21.4739L111.986 20.7979L111.933 20.7966H111.932H111.9C108.821 20.7966 106.522 21.9032 104.786 23.5272C102.836 25.349 101.535 27.7649 100.309 30.042C99.8908 30.818 99.4816 31.5778 99.0583 32.2926C98.2303 33.7019 97.3583 34.9285 96.329 35.7792C95.2943 36.6285 94.129 37.1286 92.5517 37.1352C90.4571 37.1246 89.0584 36.2485 87.7931 34.8112C86.697 33.5588 85.7875 31.8759 84.8306 30.1055L84.8306 30.1055C84.1393 28.8264 83.4233 27.5016 82.5944 26.2606C81.6011 24.7819 80.4304 23.4152 78.9011 22.4125C77.3771 21.4112 75.4998 20.7966 73.1878 20.7966H73.1718V22.1299C75.9544 22.1366 77.8544 23.0699 79.4091 24.5046C81.1575 26.119 82.4055 28.426 83.6438 30.7152C84.0561 31.4775 84.4674 32.2378 84.8958 32.9699C85.7584 34.4339 86.6998 35.7899 87.9238 36.8072ZM53.8223 38.4686H53.7889V37.1352C55.3671 37.1299 56.5323 36.6285 57.5665 35.7805C58.5963 34.9299 59.4687 33.7019 60.2963 32.2939C60.7198 31.5787 61.1292 30.8185 61.5473 30.0423C62.774 27.7647 64.0751 25.349 66.0251 23.5272C67.7611 21.9046 70.0611 20.7966 73.1397 20.7966H73.1717V22.1299C71.0824 22.1326 69.4957 22.6646 68.1717 23.5286C66.8504 24.3926 65.7904 25.6099 64.8557 27.0046C64.0851 28.1455 63.4093 29.3992 62.7354 30.6495C61.7641 32.4514 60.7967 34.2462 59.5547 35.6859C58.1645 37.3032 56.3165 38.4686 53.8223 38.4686Z" fill="#ADADAD"/>
</svg>
