<svg width="52" height="100" viewBox="0 0 52 100" fill="none" xmlns="http://www.w3.org/2000/svg">
<path fill-rule="evenodd" clip-rule="evenodd" d="M16.7595 63.5772C16.9608 63.1732 17.0808 62.7758 17.0862 62.1158C17.0862 61.9816 17.0941 61.8492 17.1095 61.7192C17.0941 61.5891 17.0861 61.4567 17.0861 61.3225C17.0768 60.5652 16.9301 60.1505 16.6581 59.6812C16.3821 59.2225 15.8995 58.7092 15.1568 58.1558C14.2396 57.4551 12.9541 56.7579 11.5072 55.9732C10.6278 55.4963 9.68887 54.9871 8.73678 54.4252C7.05945 53.4198 5.31014 52.2132 3.8248 50.4892C2.97947 49.5065 2.23278 48.3492 1.69544 47.0239C1.24609 45.9223 0.947932 44.7127 0.819964 43.4212C0.773341 43.1991 0.748827 42.969 0.748827 42.7331C0.748488 42.5981 0.749958 42.4637 0.753212 42.3301C0.750085 42.2007 0.748607 42.0706 0.748795 41.9398C0.748795 41.7054 0.772984 41.4766 0.819004 41.2558C0.973024 39.6987 1.37614 38.2608 1.98616 36.9878C2.78083 35.3198 3.90082 33.9638 5.10615 32.8705C7.09105 31.0823 9.28384 29.9017 11.2173 28.8606L11.2178 28.8604C11.6428 28.6316 12.0552 28.4095 12.4502 28.1892C13.9155 27.3905 15.1315 26.6279 15.8728 25.9252C16.3022 25.5239 16.5782 25.1625 16.7595 24.8131C16.9605 24.4111 17.0805 24.0143 17.0861 23.3547C17.0861 23.3538 17.0861 23.3528 17.0861 23.3518C17.0768 22.5945 16.9301 22.1812 16.6581 21.7132C16.3821 21.2545 15.8995 20.7412 15.1568 20.1865C14.2418 19.4883 12.9603 18.7932 11.5177 18.0106C10.6353 17.532 9.69268 17.0206 8.73678 16.4559C7.05945 15.4519 5.31014 14.2439 3.8248 12.5212C2.97947 11.5385 2.23278 10.3812 1.69544 9.05589C1.07811 7.54255 0.746129 5.8252 0.748795 3.97054C0.748795 2.13053 2.2408 0.637199 4.08213 0.637199C5.92213 0.637199 7.41546 2.13053 7.41546 3.97054C7.41946 5.2172 7.64878 6.09321 8.00345 6.84521C8.36212 7.59454 8.87547 8.24917 9.59147 8.9025C10.8715 10.0875 12.8331 11.1465 14.9641 12.297C15.195 12.4217 15.4279 12.5474 15.6621 12.6745C17.2554 13.5572 18.9208 14.5145 20.4235 15.9078C21.2768 16.7052 22.0768 17.6639 22.6768 18.8225C23.3666 20.1396 23.7585 21.7053 23.7528 23.3457C23.7528 23.3477 23.7528 23.3498 23.7528 23.3518C23.7635 25.2398 23.2355 27.0252 22.3555 28.4559C21.4782 29.8945 20.3262 30.9759 19.1488 31.8585C17.618 32.9881 16.005 33.8546 14.4968 34.6649L14.4968 34.6649C13.6747 35.1066 12.8837 35.5315 12.1542 35.9732C10.7715 36.7945 9.64083 37.6372 8.88216 38.5279C8.44483 39.0385 8.11682 39.5585 7.87148 40.1572C7.63072 40.755 7.46403 41.4441 7.42451 42.3308C7.47043 43.3739 7.68707 44.1425 8.00345 44.8145C8.36212 45.5625 8.87547 46.2185 9.59147 46.8718C10.8666 48.0523 12.8193 49.1067 14.9403 50.252C15.179 50.3809 15.4199 50.511 15.6621 50.6425C17.2554 51.5251 18.9208 52.4825 20.4235 53.8772C21.2781 54.6745 22.0768 55.6332 22.6768 56.7918C23.3675 58.1105 23.7595 59.6798 23.7528 61.3225C23.7528 61.4566 23.7449 61.5889 23.7295 61.7189C23.7449 61.8491 23.7528 61.9815 23.7528 62.1158C23.7635 64.0025 23.2355 65.7892 22.3555 67.2185C21.4782 68.6572 20.3262 69.7398 19.1488 70.6212C17.6177 71.7518 16.0044 72.6182 14.4959 73.4283C13.6742 73.8697 12.8835 74.2943 12.1542 74.7358C10.7715 75.5572 9.64083 76.4012 8.88216 77.2905C8.44483 77.8012 8.11682 78.3225 7.87148 78.9212C7.59548 79.6065 7.41683 80.4118 7.41549 81.4972C7.41549 83.3385 5.92216 84.8305 4.08216 84.8305C2.24083 84.8305 0.748827 83.3385 0.748827 81.4972C0.743493 79.3678 1.1875 77.4185 1.98616 75.7518C2.78083 74.0825 3.90082 72.7265 5.10615 71.6332C7.09213 69.8451 9.28621 68.6634 11.2205 67.6217C11.6445 67.3933 12.056 67.1717 12.4502 66.9518C13.9155 66.1532 15.1315 65.3905 15.8728 64.6878C16.3022 64.2878 16.5782 63.9252 16.7595 63.5772Z" fill="black"/>
<path d="M35.1701 99.3092H33.8368C33.8341 96.9905 34.4501 95.1065 35.4528 93.5798C36.4555 92.0505 37.8235 90.8798 39.3008 89.8865C42.2595 87.9092 45.6955 86.5745 47.8515 84.6865C49.2901 83.4212 50.1648 82.0239 50.1755 79.9279H51.5088C51.5141 81.8052 50.8648 83.3359 49.8475 84.5559C48.8315 85.7799 47.4741 86.7212 46.0101 87.5838C43.0795 89.2998 39.6981 90.7399 37.5448 93.0705C36.1101 94.6252 35.1781 96.5265 35.1701 99.3092" fill="#ADADAD"/>
<path d="M35.1701 60.5452H33.8368C33.8341 58.2252 34.4501 56.3425 35.4528 54.8159C36.4555 53.2865 37.8235 52.1159 39.3008 51.1226C42.2595 49.1466 45.6955 47.8119 47.8515 45.9239C49.2901 44.6585 50.1648 43.2599 50.1755 41.1652H51.5088C51.5141 43.0425 50.8648 44.5719 49.8475 45.7932C48.8315 47.0172 47.4741 47.9585 46.0101 48.8212C43.0795 50.5359 39.6981 51.9772 37.5448 54.3079C36.1101 55.8625 35.1781 57.7626 35.1701 60.5452" fill="#ADADAD"/>
<path d="M51.5088 79.9279H50.1755C50.1702 78.3505 49.6702 77.1852 48.8209 76.1505C47.9702 75.1212 46.7422 74.2479 45.3342 73.4212C42.5208 71.7545 39.0102 70.3052 36.5675 67.6919C34.9395 65.9505 33.8288 63.6399 33.8368 60.5452H35.1702C35.1728 62.6345 35.7048 64.2212 36.5688 65.5452C37.4342 66.8665 38.6515 67.9265 40.0448 68.8612C42.8302 70.7425 46.2875 72.0585 48.7262 74.1625C50.3515 75.5585 51.5195 77.4172 51.5088 79.9279" fill="#ADADAD"/>
<path d="M51.5088 41.1652H50.1755C50.1702 39.5879 49.6702 38.4225 48.8209 37.3879C47.9702 36.3585 46.7422 35.4866 45.3342 34.6586C42.5208 32.9932 39.0102 31.5439 36.5675 28.9305C34.9395 27.1879 33.8288 24.8786 33.8368 21.7839H35.1702C35.1728 23.8732 35.7048 25.4599 36.5688 26.7825C37.4342 28.1039 38.6515 29.1639 40.0448 30.0999C42.8302 31.9812 46.2875 33.2972 48.7262 35.3999C50.3515 36.7959 51.5195 38.6546 51.5088 41.1652" fill="#ADADAD"/>
</svg>
