<svg width="28" height="28" viewBox="0 0 28 28" fill="none" xmlns="http://www.w3.org/2000/svg">
<path fill-rule="evenodd" clip-rule="evenodd" d="M14.2757 18.8115L7.01672 26.5505C5.75672 27.8932 3.64738 27.9598 2.30471 26.7012C0.962046 25.4412 0.894029 23.3318 2.15403 21.9892L9.41285 14.2509L1.67407 6.99313C0.331398 5.73313 0.264715 3.62382 1.52338 2.28115C2.78338 0.938483 4.89273 0.870434 6.23539 2.13043L13.9742 9.38826L21.2301 1.65317C22.4887 0.310506 24.598 0.243788 25.9407 1.50246C27.2833 2.76246 27.3514 4.87183 26.0914 6.2145L18.8369 13.9487L26.5714 21.2024C27.914 22.4624 27.9821 24.5718 26.7221 25.9145C25.4634 27.2571 23.354 27.3251 22.01 26.0651L14.2757 18.8115Z" fill="black"/>
</svg>
