<svg id="filled_outline" viewBox="0 0 450 450"  xmlns="http://www.w3.org/2000/svg" data-name="filled outline"><path d="M 230 317 l -168 72 l 168 72 z" fill="#ffb401"/><path d="M 283 453 l 168 -72 l -168 -72 z" fill="#f78e00"/><path d="M 424 352 l -168 -328 v 256 z" fill="#ffa100"/><path d="M 88 352 l 168 -328 v 256 z" fill="#ffc431"/><path d="M 84.8 359.4 l 168 72 a 8 8 0 0 0 6.3 0 l 168 -72 a 8 8 0 0 0 4 -11 l 0 0 l -168 -328 a 8 8 0 0 0 -14.2 0 l -168 328 l 0 0 a 8 8 0 0 0 4 11 z m 179.2 -302.2 l 142.8 278.7 l -142.8 -61.2 z m -16 217.6 l -142.8 61.2 l 142.8 -278.7 z m 0 17.4 v 119.7 l -139.7 -59.9 z m 16 119.7 v -119.7 l 139.7 59.9 z"/>
</svg>