<?xml version="1.0"?>
<svg xmlns="http://www.w3.org/2000/svg" height="512px" viewBox="0 0 512 512.001" width="512px" class=""><g><path d="m511.328125 32.96875c0-18.179688-14.789063-32.96875-32.96875-32.96875h-445.386719c-18.179687 0-32.96874975 14.789062-32.96874975 32.96875l-.00390625 394.835938c0 4.136718 3.355469 7.492187 7.492188 7.492187 4.136718 0 7.492187-3.355469 7.492187-7.492187v-325.898438h481.363281l-.003906 377.125c0 9.917969-8.066406 17.988281-17.988281 17.988281h-445.386719c-9.917969 0-17.984375-8.070312-17.984375-17.988281v-16.433594c0-4.136718-3.355469-7.488281-7.492187-7.488281-4.136719 0-7.492188 3.351563-7.492188 7.488281v16.433594c0 18.179688 14.792969 32.96875 32.96875 32.96875h445.386719c18.179687 0 32.972656-14.789062 32.972656-32.96875zm-496.34375 53.953125v-53.953125c0-9.914062 8.070313-17.984375 17.988281-17.984375h445.386719c9.917969 0 17.988281 8.066406 17.988281 17.984375v53.953125zm0 0" data-original="#000000" class="active-path" data-old_color="#000000" fill="#3E4348"/><path d="m55.257812 72.265625c-12.121093 0-21.984374-9.859375-21.984374-21.984375 0-12.121094 9.863281-21.984375 21.984374-21.984375 12.125 0 21.988282 9.863281 21.988282 21.984375 0 12.125-9.863282 21.984375-21.988282 21.984375zm0-28.984375c-3.859374 0-7 3.140625-7 7 0 3.863281 3.140626 7.003906 7 7.003906 3.863282 0 7.003907-3.140625 7.003907-7.003906 0-3.859375-3.140625-7-7.003907-7zm0 0" data-original="#000000" class="active-path" data-old_color="#000000" fill="#3E4348"/><path d="m111.234375 72.265625c-12.125 0-21.984375-9.859375-21.984375-21.984375 0-12.121094 9.859375-21.984375 21.984375-21.984375 12.121094 0 21.984375 9.863281 21.984375 21.984375 0 12.125-9.863281 21.984375-21.984375 21.984375zm0-28.984375c-3.863281 0-7.003906 3.140625-7.003906 7 0 3.863281 3.140625 7.003906 7.003906 7.003906 3.859375 0 7-3.140625 7-7.003906 0-3.859375-3.140625-7-7-7zm0 0" data-original="#000000" class="active-path" data-old_color="#000000" fill="#3E4348"/><path d="m167.207031 72.265625c-12.121093 0-21.984375-9.859375-21.984375-21.984375 0-12.121094 9.863282-21.984375 21.984375-21.984375 12.121094 0 21.984375 9.863281 21.984375 21.984375 0 12.125-9.863281 21.984375-21.984375 21.984375zm0-28.984375c-3.859375 0-7 3.140625-7 7 0 3.863281 3.140625 7.003906 7 7.003906s7-3.140625 7-7.003906c0-3.859375-3.140625-7-7-7zm0 0" data-original="#000000" class="active-path" data-old_color="#000000" fill="#3E4348"/><path d="m169.265625 296.148438h-114.007813c-4.136718 0-7.488281-3.351563-7.488281-7.488282 0-4.136718 3.351563-7.492187 7.488281-7.492187h114.007813c4.136719 0 7.488281 3.355469 7.488281 7.492187 0 4.136719-3.351562 7.488282-7.488281 7.488282zm0 0" data-original="#000000" class="active-path" data-old_color="#000000" fill="#3E4348"/><path d="m220.332031 296.148438h-15.855469c-4.136718 0-7.492187-3.351563-7.492187-7.488282 0-4.136718 3.355469-7.492187 7.492187-7.492187h15.855469c4.136719 0 7.492188 3.355469 7.492188 7.492187 0 4.136719-3.355469 7.488282-7.492188 7.488282zm0 0" data-original="#000000" class="active-path" data-old_color="#000000" fill="#3E4348"/><path d="m97.847656 343.71875h-42.589844c-4.136718 0-7.488281-3.355469-7.488281-7.492188 0-4.136718 3.351563-7.492187 7.488281-7.492187h42.589844c4.136719 0 7.488282 3.355469 7.488282 7.492187 0 4.136719-3.351563 7.492188-7.488282 7.492188zm0 0" data-original="#000000" class="active-path" data-old_color="#000000" fill="#3E4348"/><path d="m220.332031 343.71875h-88.160156c-4.136719 0-7.492187-3.355469-7.492187-7.492188 0-4.136718 3.355468-7.492187 7.492187-7.492187h88.160156c4.136719 0 7.488281 3.355469 7.488281 7.492187 0 4.136719-3.351562 7.492188-7.488281 7.492188zm0 0" data-original="#000000" class="active-path" data-old_color="#000000" fill="#3E4348"/><path d="m123.816406 373.339844h-68.558594c-4.136718 0-7.488281-3.355469-7.488281-7.492188 0-4.136718 3.351563-7.492187 7.488281-7.492187h68.558594c4.136719 0 7.492188 3.355469 7.492188 7.492187 0 4.136719-3.355469 7.492188-7.492188 7.492188zm0 0" data-original="#000000" class="active-path" data-old_color="#000000" fill="#3E4348"/><path d="m220.332031 373.339844h-62.554687c-4.136719 0-7.492188-3.355469-7.492188-7.492188 0-4.136718 3.355469-7.492187 7.492188-7.492187h62.554687c4.136719 0 7.488281 3.355469 7.488281 7.492187 0 4.136719-3.351562 7.492188-7.488281 7.492188zm0 0" data-original="#000000" class="active-path" data-old_color="#000000" fill="#3E4348"/><path d="m123.816406 428.378906h-68.558594c-4.136718 0-7.488281-3.355468-7.488281-7.492187s3.351563-7.492188 7.488281-7.492188h68.558594c4.136719 0 7.492188 3.355469 7.492188 7.492188s-3.355469 7.492187-7.492188 7.492187zm0 0" data-original="#000000" class="active-path" data-old_color="#000000" fill="#3E4348"/><path d="m220.332031 428.378906h-62.554687c-4.136719 0-7.492188-3.355468-7.492188-7.492187s3.355469-7.492188 7.492188-7.492188h62.554687c4.136719 0 7.488281 3.355469 7.488281 7.492188s-3.351562 7.492187-7.488281 7.492187zm0 0" data-original="#000000" class="active-path" data-old_color="#000000" fill="#3E4348"/><path d="m97.847656 400.652344h-42.589844c-4.136718 0-7.488281-3.355469-7.488281-7.492188 0-4.136718 3.351563-7.488281 7.488281-7.488281h42.589844c4.136719 0 7.488282 3.351563 7.488282 7.488281 0 4.136719-3.351563 7.492188-7.488282 7.492188zm0 0" data-original="#000000" class="active-path" data-old_color="#000000" fill="#3E4348"/><path d="m220.332031 400.652344h-88.160156c-4.136719 0-7.492187-3.355469-7.492187-7.492188 0-4.136718 3.355468-7.488281 7.492187-7.488281h88.160156c4.136719 0 7.488281 3.351563 7.488281 7.488281.003907 4.136719-3.351562 7.492188-7.488281 7.492188zm0 0" data-original="#000000" class="active-path" data-old_color="#000000" fill="#3E4348"/><path d="m450.699219 126.484375h-390.066407c-6.882812 0-12.484374 5.601563-12.484374 12.484375v94.453125c0 6.882813 5.601562 12.484375 12.484374 12.484375h103.46875c4.136719 0 7.492188-3.351562 7.492188-7.492188 0-4.136718-3.355469-7.488281-7.492188-7.488281h-100.96875v-89.457031h385.070313v89.457031h-249.304687c-4.136719 0-7.492188 3.351563-7.492188 7.488281 0 4.136719 3.351562 7.492188 7.492188 7.492188h251.800781c6.886719 0 12.484375-5.601562 12.484375-12.484375v-94.453125c0-6.882812-5.601563-12.484375-12.484375-12.484375zm0 0" data-original="#000000" class="active-path" data-old_color="#000000" fill="#3E4348"/><path d="m450.699219 324.375h-123.113281c-6.886719 0-12.488282 5.601562-12.488282 12.488281v28.3125c0 6.882813 5.601563 12.484375 12.488282 12.484375h40.773437l-8.992187 35.949219c-1.199219 4.789063.40625 9.734375 4.183593 12.914063 3.777344 3.175781 8.925781 3.90625 13.4375 1.90625l8.476563-3.757813 8.996094 20.285156c1.386718 3.128907 3.90625 5.53125 7.101562 6.761719 1.496094.578125 3.054688.863281 4.613281.863281 1.761719 0 3.523438-.367187 5.1875-1.105469l15.558594-6.898437c3.128906-1.386719 5.527344-3.910156 6.757813-7.101563 1.234374-3.191406 1.148437-6.671874-.242188-9.800781l-8.996094-20.289062 8.480469-3.757813c4.511719-2 7.425781-6.308594 7.609375-11.238281.179688-4.933594-2.410156-9.445313-6.761719-11.769531l-5.539062-2.960938h22.464843c6.886719 0 12.488282-5.601562 12.488282-12.484375v-28.3125c0-6.886719-5.601563-12.488281-12.484375-12.488281zm-40.832031 87.097656 8.996093 20.289063-11.585937 5.136719-8.996094-20.289063c-1.386719-3.125-3.90625-5.527344-7.101562-6.757813-1.496094-.578124-3.054688-.867187-4.613282-.867187-1.765625 0-3.527344.371094-5.1875 1.109375l-6.394531 2.835938 10.3125-41.238282 37.484375 20.042969-6.394531 2.835937c-6.457031 2.863282-9.382813 10.445313-6.519531 16.902344zm38.335937-48.796875h-47.992187l-10.304688-5.511719c-3.507812-1.875-7.601562-2.027343-11.234375-.414062-2.746094 1.21875-4.921875 3.308594-6.238281 5.925781h-42.351563v-23.320312h118.121094zm0 0" data-original="#000000" class="active-path" data-old_color="#000000" fill="#3E4348"/></g> </svg>
