<?xml version="1.0"?>
<svg xmlns="http://www.w3.org/2000/svg" xmlns:xlink="http://www.w3.org/1999/xlink" version="1.1" id="Layer_1" x="0px" y="0px" viewBox="0 0 512.001 512.001" style="enable-background:new 0 0 512.001 512.001;" xml:space="preserve" width="512px" height="512px"><g><g>
	<g>
		<path d="M474.717,212.035c-6.785,0-12.727-4.49-14.448-10.919c-4.745-17.706-11.803-34.751-20.981-50.658    c-3.354-5.815-2.346-13.224,2.456-18.027c14.536-14.537,14.536-38.19,0-52.726l-9.45-9.45    c-14.535-14.535-38.187-14.537-52.735,0.01c-4.797,4.794-12.207,5.8-18.018,2.446c-15.908-9.177-32.952-16.236-50.658-20.981    c-6.429-1.723-10.92-7.664-10.92-14.448c0.001-20.558-16.724-37.283-37.281-37.283h-13.365c-20.558,0-37.283,16.725-37.283,37.283    c0,6.785-4.49,12.727-10.919,14.448c-17.706,4.745-34.751,11.803-50.658,20.981c-5.816,3.352-13.225,2.346-18.027-2.456    c-14.537-14.537-38.19-14.536-52.726,0l-9.45,9.45c-14.536,14.537-14.536,38.19,0.01,52.735c4.794,4.795,5.8,12.205,2.446,18.018    c-9.177,15.908-16.236,32.952-20.981,50.658c-1.723,6.429-7.664,10.92-14.448,10.92C16.725,212.035,0,228.76,0,249.318v13.365    c0,20.558,16.725,37.282,37.283,37.282c6.785,0,12.727,4.49,14.448,10.919c4.745,17.709,11.804,34.754,20.981,50.658    c3.354,5.815,2.346,13.224-2.456,18.027c-14.536,14.537-14.536,38.19,0,52.726l9.45,9.45c14.537,14.537,38.19,14.539,52.735-0.01    c4.796-4.795,12.206-5.8,18.018-2.446c15.908,9.177,32.952,16.236,50.658,20.981c6.429,1.723,10.92,7.664,10.92,14.448    c0,20.558,16.725,37.282,37.283,37.282h13.365c20.558,0,37.283-16.725,37.283-37.282c0-6.785,4.49-12.727,10.919-14.448    c17.706-4.745,34.751-11.803,50.658-20.981c5.816-3.352,13.225-2.345,18.027,2.457c14.539,14.54,38.191,14.537,52.726,0l9.45-9.45    c14.536-14.537,14.536-38.19-0.01-52.735c-4.794-4.795-5.8-12.205-2.446-18.018c9.176-15.905,16.236-32.951,20.981-50.658    c1.723-6.429,7.664-10.92,14.448-10.92c20.558,0,37.282-16.725,37.282-37.283v-13.365C512,228.76,495.275,212.035,474.717,212.035    z M474.717,277.705c-16.841,0-31.625,11.275-35.951,27.419c-4.243,15.832-10.554,31.072-18.76,45.296    c-8.376,14.521-5.914,32.976,5.998,44.89c5.858,5.857,5.858,15.387,0,21.244l-9.45,9.45c-5.857,5.856-15.387,5.858-21.255-0.01    c-11.902-11.902-30.357-14.366-44.88-5.988c-14.226,8.208-29.466,14.52-45.296,18.76c-16.142,4.326-27.418,19.11-27.418,35.951    c0,8.282-6.739,15.022-15.022,15.022h-13.365c-8.282,0-15.022-6.739-15.022-15.022c0-16.841-11.275-31.625-27.419-35.951    c-15.831-4.242-31.07-10.553-45.296-18.76c-5.757-3.32-12.132-4.939-18.474-4.939c-9.653,0-19.226,3.747-26.416,10.936    c-5.857,5.857-15.387,5.857-21.244,0l-9.45-9.45c-5.859-5.856-5.859-15.386,0.008-21.254c11.902-11.903,14.364-30.358,5.988-44.88    c-8.206-14.224-14.518-29.465-18.76-45.296c-4.326-16.142-19.11-27.418-35.951-27.418c-8.282,0-15.022-6.739-15.022-15.022    v-13.365c0-8.282,6.74-15.022,15.022-15.022c16.841,0,31.625-11.275,35.951-27.419c4.242-15.831,10.553-31.07,18.76-45.296    c8.376-14.521,5.914-32.976-5.998-44.89c-5.857-5.857-5.857-15.387,0.001-21.244l9.45-9.45c5.856-5.857,15.386-5.859,21.255,0.01    c11.902,11.902,30.356,14.365,44.88,5.988c14.226-8.208,29.466-14.52,45.296-18.76c16.142-4.326,27.418-19.11,27.418-35.951    c0-8.282,6.739-15.022,15.022-15.022h13.365c8.282,0,15.022,6.739,15.022,15.022c0,16.841,11.275,31.625,27.419,35.951    c15.831,4.242,31.069,10.553,45.296,18.76c14.52,8.376,32.977,5.914,44.89-5.998c5.857-5.857,15.387-5.857,21.244,0l9.45,9.45    c5.858,5.857,5.858,15.387-0.01,21.255c-11.902,11.903-14.364,30.358-5.988,44.88c8.208,14.226,14.52,29.466,18.76,45.296    c4.326,16.142,19.11,27.418,35.951,27.418c8.282,0,15.022,6.739,15.022,15.022v13.365h0.001    C489.739,270.965,483,277.705,474.717,277.705z" data-original="#000000" class="active-path" data-old_color="#000000" fill="#3E4348"/>
	</g>
</g><g>
	<g>
		<path d="M256,111.305c-79.786,0-144.696,64.909-144.696,144.696S176.214,400.696,256,400.696s144.696-64.909,144.696-144.696    S335.786,111.305,256,111.305z M256,378.435c-67.51,0-122.435-54.924-122.435-122.435c0-67.51,54.924-122.435,122.435-122.435    c67.511,0,122.435,54.924,122.435,122.435C378.435,323.511,323.511,378.435,256,378.435z" data-original="#000000" class="active-path" data-old_color="#000000" fill="#3E4348"/>
	</g>
</g><g>
	<g>
		<path d="M356.173,255.495c-0.048-6.117-5.022-11.044-11.128-11.044c-0.029,0-0.06,0-0.089,0    c-6.146,0.048-11.091,5.071-11.044,11.217l0.001,0.332c0,6.146,4.984,11.13,11.13,11.13c6.146,0,11.13-4.984,11.13-11.13    L356.173,255.495z" data-original="#000000" class="active-path" data-old_color="#000000" fill="#3E4348"/>
	</g>
</g><g>
	<g>
		<path d="M348.838,218.306c-15.425-37.955-51.866-62.48-92.838-62.48c-6.146,0-11.13,4.984-11.13,11.13s4.984,11.13,11.13,11.13    c31.871,0,60.217,19.076,72.213,48.599c1.758,4.323,5.92,6.943,10.317,6.943c1.395,0,2.814-0.264,4.186-0.821    C348.41,230.493,351.152,224.001,348.838,218.306z" data-original="#000000" class="active-path" data-old_color="#000000" fill="#3E4348"/>
	</g>
</g></g> </svg>
