<svg height="511pt" viewBox="0 -46 511.99962 511" width="511pt" xmlns="http://www.w3.org/2000/svg"><path d="m509.253906 70.402344c-20.101562 29.097656-34.554687 39.597656-42.953125 45.898437-1.5 1.199219-3.601562 2.699219-4.203125 3.300781.300782 3.300782.300782 2.398438.601563 8.398438 0 81.601562-52.5 237-206.699219 280.5-26.097656 7.5-55.5 11.699219-87.898438 11.699219-82.199218 0-138.332031-31.5-160.535156-45-5.996094-3.597657-9-11.097657-6.898437-17.699219 2.101562-6.597656 8.101562-11.097656 15-10.5 38.101562 3.300781 76.234375-3.300781 107.132812-19.199219-35.097656-14.101562-58.199219-43.800781-66-70.800781-1.800781-6 .300781-12.296875 5.101563-15.898438-24.902344-20.402343-38.703125-49.5-41.105469-87-.597656-9.601562 7.800781-16.800781 15.601563-15.902343-18.898438-32.699219-19.199219-69.898438-.300782-111.300781 2.101563-4.796876 6.304688-7.796876 11.402344-8.699219 5.097656-.597657 10.199219 1.199219 13.5 5.101562 48 56.097657 105.601562 87.898438 175.800781 96.601563-.300781-29.101563 7.199219-52.5 19.199219-70.503906 21.898438-33.597657 59.398438-48.898438 91.800781-48.898438 34.199219 0 56.699219 10.800781 77.996094 30 8.101563-1.5 26.15625-8.097656 50.457031-20.398438 5.398438-2.699218 12.296875-2.101562 17.101563 1.796876 4.496093 3.902343 6.597656 10.203124 4.496093 15.902343-2.398437 7.5-5.398437 14.699219-9.300781 21.300781 8.101563-3.300781 14.703125-3.601562 20.101563 3.300782 4.199218 5.097656 4.5 12.296875.601562 18zm0 0" fill="#25d9f8"/><path d="m509.253906 70.402344c-20.101562 29.097656-34.554687 39.597656-42.953125 45.898437-1.5 1.199219-3.601562 2.699219-4.203125 3.300781.300782 3.300782.300782 2.398438.601563 8.398438 0 81.601562-52.5 237-206.699219 280.5v-359.101562c21.898438-33.597657 59.398438-48.898438 91.800781-48.898438 34.199219 0 56.699219 10.800781 78 30 8.101563-1.5 26.152344-8.097656 50.453125-20.398438 5.402344-2.699218 12.300782-2.101562 17.101563 1.796876 4.5 3.902343 6.597656 10.203124 4.5 15.902343-2.402344 7.5-5.402344 14.699219-9.300781 21.300781 8.101562-3.300781 14.699218-3.601562 20.101562 3.300782 4.195312 5.097656 4.496094 12.296875.597656 18zm0 0" fill="#00c0f1"/></svg>